<svg xmlns="http://www.w3.org/2000/svg" xmlns:xlink="http://www.w3.org/1999/xlink" width="1920" zoomAndPan="magnify" viewBox="0 0 1440 225" height="300" preserveAspectRatio="xMidYMid meet" version="1.0"><defs><clipPath id="d7de2c4d90"><path d="M 0 16 L 1440 16 L 1440 121.664062 L 0 121.664062 Z M 0 16 " clip-rule="nonzero"/></clipPath><clipPath id="6451b63282"><path d="M 0 31 L 1440 31 L 1440 121.664062 L 0 121.664062 Z M 0 31 " clip-rule="nonzero"/></clipPath><clipPath id="eade7ff19c"><path d="M 0 56 L 1440 56 L 1440 121.664062 L 0 121.664062 Z M 0 56 " clip-rule="nonzero"/></clipPath><clipPath id="67a16c4604"><path d="M 0 70 L 1440 70 L 1440 121.664062 L 0 121.664062 Z M 0 70 " clip-rule="nonzero"/></clipPath><clipPath id="2eb3a1ce79"><path d="M 0 91 L 1440 91 L 1440 121.664062 L 0 121.664062 Z M 0 91 " clip-rule="nonzero"/></clipPath><clipPath id="7cea1ff728"><path d="M 0 112.5 L 1440 112.5 L 1440 211 L 0 211 Z M 0 112.5 " clip-rule="nonzero"/></clipPath><clipPath id="59debb6986"><path d="M 0 112.5 L 1440 112.5 L 1440 189 L 0 189 Z M 0 112.5 " clip-rule="nonzero"/></clipPath><clipPath id="0bbe6128f8"><path d="M 0 112.5 L 1440 112.5 L 1440 176 L 0 176 Z M 0 112.5 " clip-rule="nonzero"/></clipPath><clipPath id="128abb847f"><path d="M 0 112.5 L 1440 112.5 L 1440 159 L 0 159 Z M 0 112.5 " clip-rule="nonzero"/></clipPath><clipPath id="9b07b60751"><path d="M 0 112.5 L 1440 112.5 L 1440 140 L 0 140 Z M 0 112.5 " clip-rule="nonzero"/></clipPath></defs><g clip-path="url(#d7de2c4d90)"><path fill="#895159" d="M -90.335938 97.289062 L -70.25 97.289062 C -50.242188 97.289062 -10.066406 97.289062 29.863281 98.101562 C 69.878906 98.914062 109.726562 100.539062 149.742188 99.15625 C 189.671875 97.855469 229.847656 93.46875 269.941406 81.039062 C 310.035156 68.605469 350.210938 47.96875 390.144531 34.074219 C 430.15625 20.101562 470.007812 12.789062 510.019531 17.824219 C 549.953125 22.78125 590.128906 40.167969 630.222656 42.6875 C 670.316406 45.289062 710.492188 33.101562 750.585938 25.382812 C 790.679688 17.664062 830.855469 14.414062 870.785156 29.851562 C 910.800781 45.289062 950.648438 79.414062 990.664062 84.042969 C 1030.59375 88.59375 1070.769531 63.730469 1110.863281 45.855469 C 1150.957031 27.980469 1191.132812 17.09375 1231.066406 22.292969 C 1271.078125 27.414062 1310.929688 48.539062 1350.941406 51.542969 C 1390.871094 54.46875 1431.046875 39.355469 1451.054688 31.71875 L 1471.140625 24.164062 L 1471.140625 122.476562 L 1451.054688 122.476562 C 1431.046875 122.476562 1390.871094 122.476562 1350.941406 122.476562 C 1310.929688 122.476562 1271.078125 122.476562 1231.066406 122.476562 C 1191.132812 122.476562 1150.957031 122.476562 1110.863281 122.476562 C 1070.769531 122.476562 1030.59375 122.476562 990.664062 122.476562 C 950.648438 122.476562 910.800781 122.476562 870.785156 122.476562 C 830.855469 122.476562 790.679688 122.476562 750.585938 122.476562 C 710.492188 122.476562 670.316406 122.476562 630.222656 122.476562 C 590.128906 122.476562 549.953125 122.476562 510.019531 122.476562 C 470.007812 122.476562 430.15625 122.476562 390.144531 122.476562 C 350.210938 122.476562 310.035156 122.476562 269.941406 122.476562 C 229.847656 122.476562 189.671875 122.476562 149.742188 122.476562 C 109.726562 122.476562 69.878906 122.476562 29.863281 122.476562 C -10.066406 122.476562 -50.242188 122.476562 -70.25 122.476562 L -90.335938 122.476562 Z M -90.335938 97.289062 " fill-opacity="1" fill-rule="nonzero"/></g><g clip-path="url(#6451b63282)"><path fill="#9c697e" d="M -90.335938 112.726562 L -70.25 112.5625 C -50.242188 112.480469 -10.066406 112.15625 29.863281 103.542969 C 69.878906 94.851562 109.726562 77.789062 149.742188 76.976562 C 189.671875 76.164062 229.847656 91.601562 269.941406 86.5625 C 310.035156 81.605469 350.210938 56.09375 390.144531 43.417969 C 430.15625 30.664062 470.007812 30.664062 510.019531 36.757812 C 549.953125 42.851562 590.128906 55.039062 630.222656 67.226562 C 670.316406 79.414062 710.492188 91.601562 750.585938 86.074219 C 790.679688 80.46875 830.855469 57.230469 870.785156 44.230469 C 910.800781 31.230469 950.648438 28.46875 990.664062 34.96875 C 1030.59375 41.46875 1070.769531 57.230469 1110.863281 64.136719 C 1150.957031 71.042969 1191.132812 69.09375 1231.066406 69.824219 C 1271.078125 70.476562 1310.929688 73.726562 1350.941406 67.875 C 1390.871094 62.105469 1431.046875 47.15625 1451.054688 39.761719 L 1471.140625 32.289062 L 1471.140625 122.476562 L 1451.054688 122.476562 C 1431.046875 122.476562 1390.871094 122.476562 1350.941406 122.476562 C 1310.929688 122.476562 1271.078125 122.476562 1231.066406 122.476562 C 1191.132812 122.476562 1150.957031 122.476562 1110.863281 122.476562 C 1070.769531 122.476562 1030.59375 122.476562 990.664062 122.476562 C 950.648438 122.476562 910.800781 122.476562 870.785156 122.476562 C 830.855469 122.476562 790.679688 122.476562 750.585938 122.476562 C 710.492188 122.476562 670.316406 122.476562 630.222656 122.476562 C 590.128906 122.476562 549.953125 122.476562 510.019531 122.476562 C 470.007812 122.476562 430.15625 122.476562 390.144531 122.476562 C 350.210938 122.476562 310.035156 122.476562 269.941406 122.476562 C 229.847656 122.476562 189.671875 122.476562 149.742188 122.476562 C 109.726562 122.476562 69.878906 122.476562 29.863281 122.476562 C -10.066406 122.476562 -50.242188 122.476562 -70.25 122.476562 L -90.335938 122.476562 Z M -90.335938 112.726562 " fill-opacity="1" fill-rule="nonzero"/></g><g clip-path="url(#eade7ff19c)"><path fill="#a983a2" d="M -90.335938 77.789062 L -70.25 74.375 C -50.242188 71.042969 -10.066406 64.21875 29.863281 59.914062 C 69.878906 55.605469 109.726562 53.65625 149.742188 62.351562 C 189.671875 71.042969 229.847656 90.21875 269.941406 90.136719 C 310.035156 89.976562 350.210938 70.476562 390.144531 68.445312 C 430.15625 66.414062 470.007812 81.851562 510.019531 87.945312 C 549.953125 94.039062 590.128906 90.789062 630.222656 85.667969 C 670.316406 80.46875 710.492188 73.480469 750.585938 72.667969 C 790.679688 71.855469 830.855469 77.21875 870.785156 76.324219 C 910.800781 75.351562 950.648438 68.039062 990.664062 62.757812 C 1030.59375 57.476562 1070.769531 54.226562 1110.863281 60.5625 C 1150.957031 66.980469 1191.132812 82.90625 1231.066406 88.917969 C 1271.078125 94.851562 1310.929688 90.789062 1350.941406 90.625 C 1390.871094 90.542969 1431.046875 94.28125 1451.054688 96.230469 L 1471.140625 98.101562 L 1471.140625 122.476562 L 1451.054688 122.476562 C 1431.046875 122.476562 1390.871094 122.476562 1350.941406 122.476562 C 1310.929688 122.476562 1271.078125 122.476562 1231.066406 122.476562 C 1191.132812 122.476562 1150.957031 122.476562 1110.863281 122.476562 C 1070.769531 122.476562 1030.59375 122.476562 990.664062 122.476562 C 950.648438 122.476562 910.800781 122.476562 870.785156 122.476562 C 830.855469 122.476562 790.679688 122.476562 750.585938 122.476562 C 710.492188 122.476562 670.316406 122.476562 630.222656 122.476562 C 590.128906 122.476562 549.953125 122.476562 510.019531 122.476562 C 470.007812 122.476562 430.15625 122.476562 390.144531 122.476562 C 350.210938 122.476562 310.035156 122.476562 269.941406 122.476562 C 229.847656 122.476562 189.671875 122.476562 149.742188 122.476562 C 109.726562 122.476562 69.878906 122.476562 29.863281 122.476562 C -10.066406 122.476562 -50.242188 122.476562 -70.25 122.476562 L -90.335938 122.476562 Z M -90.335938 77.789062 " fill-opacity="1" fill-rule="nonzero"/></g><g clip-path="url(#67a16c4604)"><path fill="#b2a0c4" d="M -90.335938 70.476562 L -70.25 72.75 C -50.242188 75.105469 -10.066406 79.65625 29.863281 83.71875 C 69.878906 87.78125 109.726562 91.355469 149.742188 95.5 C 189.671875 99.726562 229.847656 104.601562 269.941406 99.5625 C 310.035156 94.605469 350.210938 79.65625 390.144531 75.59375 C 430.15625 71.53125 470.007812 78.355469 510.019531 84.125 C 549.953125 89.976562 590.128906 94.851562 630.222656 98.75 C 670.316406 102.730469 710.492188 105.65625 750.585938 106.46875 C 790.679688 107.28125 830.855469 105.980469 870.785156 99.96875 C 910.800781 94.039062 950.648438 83.476562 990.664062 77.136719 C 1030.59375 70.71875 1070.769531 68.605469 1110.863281 73.320312 C 1150.957031 78.03125 1191.132812 89.730469 1231.066406 95.011719 C 1271.078125 100.292969 1310.929688 99.15625 1350.941406 97.9375 C 1390.871094 96.71875 1431.046875 95.417969 1451.054688 94.6875 L 1471.140625 94.039062 L 1471.140625 122.476562 L 1451.054688 122.476562 C 1431.046875 122.476562 1390.871094 122.476562 1350.941406 122.476562 C 1310.929688 122.476562 1271.078125 122.476562 1231.066406 122.476562 C 1191.132812 122.476562 1150.957031 122.476562 1110.863281 122.476562 C 1070.769531 122.476562 1030.59375 122.476562 990.664062 122.476562 C 950.648438 122.476562 910.800781 122.476562 870.785156 122.476562 C 830.855469 122.476562 790.679688 122.476562 750.585938 122.476562 C 710.492188 122.476562 670.316406 122.476562 630.222656 122.476562 C 590.128906 122.476562 549.953125 122.476562 510.019531 122.476562 C 470.007812 122.476562 430.15625 122.476562 390.144531 122.476562 C 350.210938 122.476562 310.035156 122.476562 269.941406 122.476562 C 229.847656 122.476562 189.671875 122.476562 149.742188 122.476562 C 109.726562 122.476562 69.878906 122.476562 29.863281 122.476562 C -10.066406 122.476562 -50.242188 122.476562 -70.25 122.476562 L -90.335938 122.476562 Z M -90.335938 70.476562 " fill-opacity="1" fill-rule="nonzero"/></g><g clip-path="url(#2eb3a1ce79)"><path fill="#babde2" d="M -90.335938 94.039062 L -70.25 94.039062 C -50.242188 94.039062 -10.066406 94.039062 29.863281 93.875 C 69.878906 93.792969 109.726562 93.46875 149.742188 94.445312 C 189.671875 95.417969 229.847656 97.53125 269.941406 101.511719 C 310.035156 105.414062 350.210938 111.101562 390.144531 112.5625 C 430.15625 114.105469 470.007812 111.34375 510.019531 108.90625 C 549.953125 106.46875 590.128906 104.355469 630.222656 105.167969 C 670.316406 105.980469 710.492188 109.71875 750.585938 107.28125 C 790.679688 104.84375 830.855469 96.230469 870.785156 93.0625 C 910.800781 89.976562 950.648438 92.414062 990.664062 93.386719 C 1030.59375 94.28125 1070.769531 93.792969 1110.863281 96.3125 C 1150.957031 98.914062 1191.132812 104.601562 1231.066406 105.167969 C 1271.078125 105.65625 1310.929688 101.105469 1350.941406 101.59375 C 1390.871094 102.164062 1431.046875 107.851562 1451.054688 110.695312 L 1471.140625 113.539062 L 1471.140625 122.476562 L 1451.054688 122.476562 C 1431.046875 122.476562 1390.871094 122.476562 1350.941406 122.476562 C 1310.929688 122.476562 1271.078125 122.476562 1231.066406 122.476562 C 1191.132812 122.476562 1150.957031 122.476562 1110.863281 122.476562 C 1070.769531 122.476562 1030.59375 122.476562 990.664062 122.476562 C 950.648438 122.476562 910.800781 122.476562 870.785156 122.476562 C 830.855469 122.476562 790.679688 122.476562 750.585938 122.476562 C 710.492188 122.476562 670.316406 122.476562 630.222656 122.476562 C 590.128906 122.476562 549.953125 122.476562 510.019531 122.476562 C 470.007812 122.476562 430.15625 122.476562 390.144531 122.476562 C 350.210938 122.476562 310.035156 122.476562 269.941406 122.476562 C 229.847656 122.476562 189.671875 122.476562 149.742188 122.476562 C 109.726562 122.476562 69.878906 122.476562 29.863281 122.476562 C -10.066406 122.476562 -50.242188 122.476562 -70.25 122.476562 L -90.335938 122.476562 Z M -90.335938 94.039062 " fill-opacity="1" fill-rule="nonzero"/></g><g clip-path="url(#7cea1ff728)"><path fill="#895159" d="M -72.714844 206.308594 L -61.746094 200.585938 C -50.699219 194.941406 -28.757812 183.492188 -6.582031 179.675781 C 15.515625 175.863281 37.773438 179.519531 59.871094 179.914062 C 82.046875 180.3125 103.988281 177.453125 126.164062 174.511719 C 148.261719 171.570312 170.519531 168.707031 192.617188 170.773438 C 214.796875 172.921875 236.734375 180.074219 258.914062 186.671875 C 281.011719 193.351562 303.265625 199.394531 325.367188 197.804688 C 347.542969 196.214844 369.480469 186.992188 391.660156 187.867188 C 413.757812 188.820312 436.015625 199.949219 458.113281 202.175781 C 480.289062 204.480469 502.230469 197.804688 524.40625 188.980469 C 546.503906 180.074219 568.761719 168.945312 590.859375 168.148438 C 613.039062 167.355469 634.976562 176.894531 657.152344 183.652344 C 679.25 190.410156 701.507812 194.386719 723.605469 193.429688 C 745.785156 192.554688 767.722656 186.671875 789.902344 182.300781 C 812 177.929688 834.253906 175.066406 856.355469 176.734375 C 878.53125 178.484375 900.46875 184.84375 922.648438 187.46875 C 944.746094 190.171875 967.003906 189.058594 989.101562 187.867188 C 1011.277344 186.671875 1033.21875 185.402344 1055.394531 183.015625 C 1077.492188 180.632812 1099.75 177.132812 1121.847656 176.65625 C 1144.027344 176.101562 1165.964844 178.484375 1188.140625 180.871094 C 1210.238281 183.253906 1232.496094 185.640625 1254.59375 189.058594 C 1276.773438 192.554688 1298.710938 197.007812 1320.890625 192.160156 C 1342.988281 187.230469 1365.242188 172.921875 1387.34375 174.351562 C 1409.519531 175.863281 1431.457031 193.035156 1442.507812 201.699219 L 1453.476562 210.285156 L 1453.476562 112.5 L 1442.507812 112.5 C 1431.457031 112.5 1409.519531 112.5 1387.34375 112.5 C 1365.242188 112.5 1342.988281 112.5 1320.890625 112.5 C 1298.710938 112.5 1276.773438 112.5 1254.59375 112.5 C 1232.496094 112.5 1210.238281 112.5 1188.140625 112.5 C 1165.964844 112.5 1144.027344 112.5 1121.847656 112.5 C 1099.75 112.5 1077.492188 112.5 1055.394531 112.5 C 1033.21875 112.5 1011.277344 112.5 989.101562 112.5 C 967.003906 112.5 944.746094 112.5 922.648438 112.5 C 900.46875 112.5 878.53125 112.5 856.355469 112.5 C 834.253906 112.5 812 112.5 789.902344 112.5 C 767.722656 112.5 745.785156 112.5 723.605469 112.5 C 701.507812 112.5 679.25 112.5 657.152344 112.5 C 634.976562 112.5 613.039062 112.5 590.859375 112.5 C 568.761719 112.5 546.503906 112.5 524.40625 112.5 C 502.230469 112.5 480.289062 112.5 458.113281 112.5 C 436.015625 112.5 413.757812 112.5 391.660156 112.5 C 369.480469 112.5 347.542969 112.5 325.367188 112.5 C 303.265625 112.5 281.011719 112.5 258.914062 112.5 C 236.734375 112.5 214.796875 112.5 192.617188 112.5 C 170.519531 112.5 148.261719 112.5 126.164062 112.5 C 103.988281 112.5 82.046875 112.5 59.871094 112.5 C 37.773438 112.5 15.515625 112.5 -6.582031 112.5 C -28.757812 112.5 -50.699219 112.5 -61.746094 112.5 L -72.714844 112.5 Z M -72.714844 206.308594 " fill-opacity="1" fill-rule="nonzero"/></g><g clip-path="url(#59debb6986)"><path fill="#9c697e" d="M -72.714844 184.050781 L -61.746094 179.042969 C -50.699219 173.953125 -28.757812 163.9375 -6.582031 163.617188 C 15.515625 163.378906 37.773438 172.921875 59.871094 174.113281 C 82.046875 175.304688 103.988281 168.148438 126.164062 168.785156 C 148.261719 169.5 170.519531 177.929688 192.617188 183.414062 C 214.796875 188.820312 236.734375 191.203125 258.914062 184.6875 C 281.011719 178.246094 303.265625 162.824219 325.367188 158.769531 C 347.542969 154.636719 369.480469 161.789062 391.660156 165.207031 C 413.757812 168.707031 436.015625 168.386719 458.113281 167.515625 C 480.289062 166.558594 502.230469 164.96875 524.40625 162.425781 C 546.503906 159.960938 568.761719 156.464844 590.859375 154.398438 C 613.039062 152.25 634.976562 151.453125 657.152344 157.578125 C 679.25 163.617188 701.507812 176.65625 723.605469 181.027344 C 745.785156 185.402344 767.722656 181.109375 789.902344 179.4375 C 812 177.691406 834.253906 178.484375 856.355469 178.085938 C 878.53125 177.691406 900.46875 176.101562 922.648438 176.734375 C 944.746094 177.453125 967.003906 180.3125 989.101562 181.507812 C 1011.277344 182.699219 1033.21875 182.222656 1055.394531 179.519531 C 1077.492188 176.894531 1099.75 172.125 1121.847656 172.679688 C 1144.027344 173.160156 1165.964844 179.042969 1188.140625 179.519531 C 1210.238281 180.074219 1232.496094 175.304688 1254.59375 174.75 C 1276.773438 174.273438 1298.710938 177.929688 1320.890625 175.863281 C 1342.988281 173.714844 1365.242188 165.765625 1387.34375 164.414062 C 1409.519531 163.140625 1431.457031 168.386719 1442.507812 171.089844 L 1453.476562 173.714844 L 1453.476562 112.5 L 1442.507812 112.5 C 1431.457031 112.5 1409.519531 112.5 1387.34375 112.5 C 1365.242188 112.5 1342.988281 112.5 1320.890625 112.5 C 1298.710938 112.5 1276.773438 112.5 1254.59375 112.5 C 1232.496094 112.5 1210.238281 112.5 1188.140625 112.5 C 1165.964844 112.5 1144.027344 112.5 1121.847656 112.5 C 1099.75 112.5 1077.492188 112.5 1055.394531 112.5 C 1033.21875 112.5 1011.277344 112.5 989.101562 112.5 C 967.003906 112.5 944.746094 112.5 922.648438 112.5 C 900.46875 112.5 878.53125 112.5 856.355469 112.5 C 834.253906 112.5 812 112.5 789.902344 112.5 C 767.722656 112.5 745.785156 112.5 723.605469 112.5 C 701.507812 112.5 679.25 112.5 657.152344 112.5 C 634.976562 112.5 613.039062 112.5 590.859375 112.5 C 568.761719 112.5 546.503906 112.5 524.40625 112.5 C 502.230469 112.5 480.289062 112.5 458.113281 112.5 C 436.015625 112.5 413.757812 112.5 391.660156 112.5 C 369.480469 112.5 347.542969 112.5 325.367188 112.5 C 303.265625 112.5 281.011719 112.5 258.914062 112.5 C 236.734375 112.5 214.796875 112.5 192.617188 112.5 C 170.519531 112.5 148.261719 112.5 126.164062 112.5 C 103.988281 112.5 82.046875 112.5 59.871094 112.5 C 37.773438 112.5 15.515625 112.5 -6.582031 112.5 C -28.757812 112.5 -50.699219 112.5 -61.746094 112.5 L -72.714844 112.5 Z M -72.714844 184.050781 " fill-opacity="1" fill-rule="nonzero"/></g><g clip-path="url(#0bbe6128f8)"><path fill="#a983a2" d="M -72.714844 172.125 L -61.746094 169.738281 C -50.699219 167.355469 -28.757812 162.585938 -6.582031 162.1875 C 15.515625 161.789062 37.773438 165.765625 59.871094 167.753906 C 82.046875 169.738281 103.988281 169.738281 126.164062 170.535156 C 148.261719 171.328125 170.519531 172.921875 192.617188 173.476562 C 214.796875 173.953125 236.734375 173.476562 258.914062 171.171875 C 281.011719 168.945312 303.265625 164.96875 325.367188 163.9375 C 347.542969 162.824219 369.480469 164.730469 391.660156 163.617188 C 413.757812 162.585938 436.015625 158.609375 458.113281 154.078125 C 480.289062 149.625 502.230469 144.539062 524.40625 144.460938 C 546.503906 144.300781 568.761719 149.070312 590.859375 153.679688 C 613.039062 158.371094 634.976562 162.824219 657.152344 166.558594 C 679.25 170.296875 701.507812 173.160156 723.605469 174.511719 C 745.785156 175.863281 767.722656 175.542969 789.902344 175.703125 C 812 175.863281 834.253906 176.339844 856.355469 172.523438 C 878.53125 168.707031 900.46875 160.4375 922.648438 159.167969 C 944.746094 157.816406 967.003906 163.378906 989.101562 164.414062 C 1011.277344 165.527344 1033.21875 162.027344 1055.394531 162.1875 C 1077.492188 162.347656 1099.75 166.003906 1121.847656 162.824219 C 1144.027344 159.644531 1165.964844 149.625 1188.140625 150.023438 C 1210.238281 150.421875 1232.496094 161.234375 1254.59375 164.574219 C 1276.773438 167.910156 1298.710938 163.617188 1320.890625 160.4375 C 1342.988281 157.257812 1365.242188 155.191406 1387.34375 153.839844 C 1409.519531 152.488281 1431.457031 152.011719 1442.507812 151.695312 L 1453.476562 151.453125 L 1453.476562 112.5 L 1442.507812 112.5 C 1431.457031 112.5 1409.519531 112.5 1387.34375 112.5 C 1365.242188 112.5 1342.988281 112.5 1320.890625 112.5 C 1298.710938 112.5 1276.773438 112.5 1254.59375 112.5 C 1232.496094 112.5 1210.238281 112.5 1188.140625 112.5 C 1165.964844 112.5 1144.027344 112.5 1121.847656 112.5 C 1099.75 112.5 1077.492188 112.5 1055.394531 112.5 C 1033.21875 112.5 1011.277344 112.5 989.101562 112.5 C 967.003906 112.5 944.746094 112.5 922.648438 112.5 C 900.46875 112.5 878.53125 112.5 856.355469 112.5 C 834.253906 112.5 812 112.5 789.902344 112.5 C 767.722656 112.5 745.785156 112.5 723.605469 112.5 C 701.507812 112.5 679.25 112.5 657.152344 112.5 C 634.976562 112.5 613.039062 112.5 590.859375 112.5 C 568.761719 112.5 546.503906 112.5 524.40625 112.5 C 502.230469 112.5 480.289062 112.5 458.113281 112.5 C 436.015625 112.5 413.757812 112.5 391.660156 112.5 C 369.480469 112.5 347.542969 112.5 325.367188 112.5 C 303.265625 112.5 281.011719 112.5 258.914062 112.5 C 236.734375 112.5 214.796875 112.5 192.617188 112.5 C 170.519531 112.5 148.261719 112.5 126.164062 112.5 C 103.988281 112.5 82.046875 112.5 59.871094 112.5 C 37.773438 112.5 15.515625 112.5 -6.582031 112.5 C -28.757812 112.5 -50.699219 112.5 -61.746094 112.5 L -72.714844 112.5 Z M -72.714844 172.125 " fill-opacity="1" fill-rule="nonzero"/></g><g clip-path="url(#128abb847f)"><path fill="#b2a0c4" d="M -72.714844 135.554688 L -61.746094 139.371094 C -50.699219 143.265625 -28.757812 150.898438 -6.582031 153.203125 C 15.515625 155.429688 37.773438 152.25 59.871094 148.671875 C 82.046875 145.09375 103.988281 141.121094 126.164062 140.085938 C 148.261719 138.972656 170.519531 140.882812 192.617188 141.359375 C 214.796875 141.914062 236.734375 141.121094 258.914062 140.484375 C 281.011719 139.769531 303.265625 139.292969 325.367188 139.6875 C 347.542969 140.085938 369.480469 141.359375 391.660156 142.472656 C 413.757812 143.503906 436.015625 144.300781 458.113281 145.09375 C 480.289062 145.890625 502.230469 146.683594 524.40625 149.070312 C 546.503906 151.453125 568.761719 155.429688 590.859375 157.417969 C 613.039062 159.40625 634.976562 159.40625 657.152344 155.269531 C 679.25 151.214844 701.507812 142.949219 723.605469 140.164062 C 745.785156 137.382812 767.722656 140.085938 789.902344 140.5625 C 812 141.121094 834.253906 139.53125 856.355469 140.5625 C 878.53125 141.675781 900.46875 145.332031 922.648438 148.433594 C 944.746094 151.453125 967.003906 153.839844 989.101562 155.03125 C 1011.277344 156.226562 1033.21875 156.226562 1055.394531 155.828125 C 1077.492188 155.429688 1099.75 154.636719 1121.847656 151.851562 C 1144.027344 149.070312 1165.964844 144.300781 1188.140625 144.140625 C 1210.238281 144.0625 1232.496094 148.511719 1254.59375 148.832031 C 1276.773438 149.070312 1298.710938 145.09375 1320.890625 145.09375 C 1342.988281 145.09375 1365.242188 149.070312 1387.34375 147.320312 C 1409.519531 145.652344 1431.457031 138.179688 1442.507812 134.523438 L 1453.476562 130.785156 L 1453.476562 112.5 L 1442.507812 112.5 C 1431.457031 112.5 1409.519531 112.5 1387.34375 112.5 C 1365.242188 112.5 1342.988281 112.5 1320.890625 112.5 C 1298.710938 112.5 1276.773438 112.5 1254.59375 112.5 C 1232.496094 112.5 1210.238281 112.5 1188.140625 112.5 C 1165.964844 112.5 1144.027344 112.5 1121.847656 112.5 C 1099.75 112.5 1077.492188 112.5 1055.394531 112.5 C 1033.21875 112.5 1011.277344 112.5 989.101562 112.5 C 967.003906 112.5 944.746094 112.5 922.648438 112.5 C 900.46875 112.5 878.53125 112.5 856.355469 112.5 C 834.253906 112.5 812 112.5 789.902344 112.5 C 767.722656 112.5 745.785156 112.5 723.605469 112.5 C 701.507812 112.5 679.25 112.5 657.152344 112.5 C 634.976562 112.5 613.039062 112.5 590.859375 112.5 C 568.761719 112.5 546.503906 112.5 524.40625 112.5 C 502.230469 112.5 480.289062 112.5 458.113281 112.5 C 436.015625 112.5 413.757812 112.5 391.660156 112.5 C 369.480469 112.5 347.542969 112.5 325.367188 112.5 C 303.265625 112.5 281.011719 112.5 258.914062 112.5 C 236.734375 112.5 214.796875 112.5 192.617188 112.5 C 170.519531 112.5 148.261719 112.5 126.164062 112.5 C 103.988281 112.5 82.046875 112.5 59.871094 112.5 C 37.773438 112.5 15.515625 112.5 -6.582031 112.5 C -28.757812 112.5 -50.699219 112.5 -61.746094 112.5 L -72.714844 112.5 Z M -72.714844 135.554688 " fill-opacity="1" fill-rule="nonzero"/></g><g clip-path="url(#9b07b60751)"><path fill="#babde2" d="M -72.714844 122.039062 L -61.746094 123.390625 C -50.699219 124.664062 -28.757812 127.367188 -6.582031 130.386719 C 15.515625 133.410156 37.773438 136.90625 59.871094 135.953125 C 82.046875 135 103.988281 129.75 126.164062 129.988281 C 148.261719 130.226562 170.519531 136.113281 192.617188 136.589844 C 214.796875 137.144531 236.734375 132.375 258.914062 128.796875 C 281.011719 125.21875 303.265625 122.835938 325.367188 123.867188 C 347.542969 124.980469 369.480469 129.433594 391.660156 131.578125 C 413.757812 133.726562 436.015625 133.410156 458.113281 134.125 C 480.289062 134.761719 502.230469 136.351562 524.40625 137.941406 C 546.503906 139.53125 568.761719 141.121094 590.859375 138.496094 C 613.039062 135.792969 634.976562 128.957031 657.152344 125.777344 C 679.25 122.597656 701.507812 123.074219 723.605469 124.980469 C 745.785156 126.808594 767.722656 129.988281 789.902344 129.59375 C 812 129.195312 834.253906 125.21875 856.355469 126.808594 C 878.53125 128.398438 900.46875 135.554688 922.648438 137.144531 C 944.746094 138.734375 967.003906 134.761719 989.101562 132.214844 C 1011.277344 129.75 1033.21875 128.636719 1055.394531 130.148438 C 1077.492188 131.578125 1099.75 135.554688 1121.847656 135 C 1144.027344 134.523438 1165.964844 129.433594 1188.140625 126.808594 C 1210.238281 124.1875 1232.496094 123.867188 1254.59375 125.0625 C 1276.773438 126.253906 1298.710938 128.957031 1320.890625 130.785156 C 1342.988281 132.613281 1365.242188 133.726562 1387.34375 132.214844 C 1409.519531 130.785156 1431.457031 126.808594 1442.507812 124.824219 L 1453.476562 122.835938 L 1453.476562 112.5 L 1442.507812 112.5 C 1431.457031 112.5 1409.519531 112.5 1387.34375 112.5 C 1365.242188 112.5 1342.988281 112.5 1320.890625 112.5 C 1298.710938 112.5 1276.773438 112.5 1254.59375 112.5 C 1232.496094 112.5 1210.238281 112.5 1188.140625 112.5 C 1165.964844 112.5 1144.027344 112.5 1121.847656 112.5 C 1099.75 112.5 1077.492188 112.5 1055.394531 112.5 C 1033.21875 112.5 1011.277344 112.5 989.101562 112.5 C 967.003906 112.5 944.746094 112.5 922.648438 112.5 C 900.46875 112.5 878.53125 112.5 856.355469 112.5 C 834.253906 112.5 812 112.5 789.902344 112.5 C 767.722656 112.5 745.785156 112.5 723.605469 112.5 C 701.507812 112.5 679.25 112.5 657.152344 112.5 C 634.976562 112.5 613.039062 112.5 590.859375 112.5 C 568.761719 112.5 546.503906 112.5 524.40625 112.5 C 502.230469 112.5 480.289062 112.5 458.113281 112.5 C 436.015625 112.5 413.757812 112.5 391.660156 112.5 C 369.480469 112.5 347.542969 112.5 325.367188 112.5 C 303.265625 112.5 281.011719 112.5 258.914062 112.5 C 236.734375 112.5 214.796875 112.5 192.617188 112.5 C 170.519531 112.5 148.261719 112.5 126.164062 112.5 C 103.988281 112.5 82.046875 112.5 59.871094 112.5 C 37.773438 112.5 15.515625 112.5 -6.582031 112.5 C -28.757812 112.5 -50.699219 112.5 -61.746094 112.5 L -72.714844 112.5 Z M -72.714844 122.039062 " fill-opacity="1" fill-rule="nonzero"/></g></svg>