<svg xmlns="http://www.w3.org/2000/svg" xmlns:xlink="http://www.w3.org/1999/xlink" width="1920" zoomAndPan="magnify" viewBox="0 0 1440 225" height="300" preserveAspectRatio="xMidYMid meet" version="1.0"><defs><clipPath id="06d2c5276a"><path d="M 0 100.757812 L 1440 100.757812 L 1440 207 L 0 207 Z M 0 100.757812 " clip-rule="nonzero"/></clipPath><clipPath id="1623069bc2"><path d="M 0 100.757812 L 1440 100.757812 L 1440 191 L 0 191 Z M 0 100.757812 " clip-rule="nonzero"/></clipPath><clipPath id="54c7f7af96"><path d="M 0 100.757812 L 1440 100.757812 L 1440 166 L 0 166 Z M 0 100.757812 " clip-rule="nonzero"/></clipPath><clipPath id="7062f79ea9"><path d="M 0 100.757812 L 1440 100.757812 L 1440 152 L 0 152 Z M 0 100.757812 " clip-rule="nonzero"/></clipPath><clipPath id="c74dfe01fd"><path d="M 0 100.757812 L 1440 100.757812 L 1440 130 L 0 130 Z M 0 100.757812 " clip-rule="nonzero"/></clipPath><clipPath id="81d432e38d"><path d="M 0 15 L 1440 15 L 1440 112.296875 L 0 112.296875 Z M 0 15 " clip-rule="nonzero"/></clipPath><clipPath id="450a1296bc"><path d="M 0 28 L 1440 28 L 1440 112.296875 L 0 112.296875 Z M 0 28 " clip-rule="nonzero"/></clipPath><clipPath id="9f251c507c"><path d="M 0 40 L 1440 40 L 1440 112.296875 L 0 112.296875 Z M 0 40 " clip-rule="nonzero"/></clipPath><clipPath id="92efe191e9"><path d="M 0 51 L 1440 51 L 1440 112.296875 L 0 112.296875 Z M 0 51 " clip-rule="nonzero"/></clipPath><clipPath id="ce36b5bd1b"><path d="M 0 67 L 1440 67 L 1440 112.296875 L 0 112.296875 Z M 0 67 " clip-rule="nonzero"/></clipPath><clipPath id="7c9f587a72"><path d="M 0 80 L 1440 80 L 1440 112.296875 L 0 112.296875 Z M 0 80 " clip-rule="nonzero"/></clipPath></defs><g clip-path="url(#06d2c5276a)"><path fill="#895159" d="M -105.992188 123.929688 L -85.535156 123.929688 C -65.164062 123.929688 -24.253906 123.929688 16.40625 123.101562 C 57.148438 122.273438 97.726562 120.617188 138.472656 122.023438 C 179.132812 123.347656 220.042969 127.816406 260.867188 140.476562 C 301.695312 153.140625 342.605469 174.15625 383.265625 188.308594 C 424.007812 202.539062 464.585938 209.988281 505.332031 204.855469 C 545.992188 199.808594 586.902344 182.101562 627.726562 179.535156 C 668.554688 176.886719 709.464844 189.300781 750.289062 197.160156 C 791.117188 205.023438 832.027344 208.332031 872.6875 192.609375 C 913.429688 176.886719 954.007812 142.132812 994.753906 137.417969 C 1035.414062 132.78125 1076.324219 158.105469 1117.148438 176.308594 C 1157.976562 194.511719 1198.886719 205.601562 1239.546875 200.304688 C 1280.289062 195.09375 1320.867188 173.578125 1361.613281 170.515625 C 1402.273438 167.539062 1443.183594 182.929688 1463.554688 190.707031 L 1484.007812 198.402344 L 1484.007812 100.757812 L 1463.554688 100.757812 C 1443.183594 100.757812 1402.273438 100.757812 1361.613281 100.757812 C 1320.867188 100.757812 1280.289062 100.757812 1239.546875 100.757812 C 1198.886719 100.757812 1157.976562 100.757812 1117.148438 100.757812 C 1076.324219 100.757812 1035.414062 100.757812 994.753906 100.757812 C 954.007812 100.757812 913.429688 100.757812 872.6875 100.757812 C 832.027344 100.757812 791.117188 100.757812 750.289062 100.757812 C 709.464844 100.757812 668.554688 100.757812 627.726562 100.757812 C 586.902344 100.757812 545.992188 100.757812 505.332031 100.757812 C 464.585938 100.757812 424.007812 100.757812 383.265625 100.757812 C 342.605469 100.757812 301.695312 100.757812 260.867188 100.757812 C 220.042969 100.757812 179.132812 100.757812 138.472656 100.757812 C 97.726562 100.757812 57.148438 100.757812 16.40625 100.757812 C -24.253906 100.757812 -65.164062 100.757812 -85.535156 100.757812 L -105.992188 100.757812 Z M -105.992188 123.929688 " fill-opacity="1" fill-rule="nonzero"/></g><g clip-path="url(#1623069bc2)"><path fill="#9c697e" d="M -105.992188 108.207031 L -85.535156 108.371094 C -65.164062 108.453125 -24.253906 108.785156 16.40625 117.554688 C 57.148438 126.410156 97.726562 143.789062 138.472656 144.617188 C 179.132812 145.441406 220.042969 129.71875 260.867188 134.851562 C 301.695312 139.898438 342.605469 165.882812 383.265625 178.792969 C 424.007812 191.78125 464.585938 191.78125 505.332031 185.578125 C 545.992188 179.371094 586.902344 166.957031 627.726562 154.546875 C 668.554688 142.132812 709.464844 129.71875 750.289062 135.347656 C 791.117188 141.058594 832.027344 164.722656 872.6875 177.964844 C 913.429688 191.203125 954.007812 194.015625 994.753906 187.398438 C 1035.414062 180.777344 1076.324219 164.722656 1117.148438 157.691406 C 1157.976562 150.65625 1198.886719 152.640625 1239.546875 151.898438 C 1280.289062 151.234375 1320.867188 147.925781 1361.613281 153.882812 C 1402.273438 159.757812 1443.183594 174.984375 1463.554688 182.515625 L 1484.007812 190.128906 L 1484.007812 100.757812 L 1463.554688 100.757812 C 1443.183594 100.757812 1402.273438 100.757812 1361.613281 100.757812 C 1320.867188 100.757812 1280.289062 100.757812 1239.546875 100.757812 C 1198.886719 100.757812 1157.976562 100.757812 1117.148438 100.757812 C 1076.324219 100.757812 1035.414062 100.757812 994.753906 100.757812 C 954.007812 100.757812 913.429688 100.757812 872.6875 100.757812 C 832.027344 100.757812 791.117188 100.757812 750.289062 100.757812 C 709.464844 100.757812 668.554688 100.757812 627.726562 100.757812 C 586.902344 100.757812 545.992188 100.757812 505.332031 100.757812 C 464.585938 100.757812 424.007812 100.757812 383.265625 100.757812 C 342.605469 100.757812 301.695312 100.757812 260.867188 100.757812 C 220.042969 100.757812 179.132812 100.757812 138.472656 100.757812 C 97.726562 100.757812 57.148438 100.757812 16.40625 100.757812 C -24.253906 100.757812 -65.164062 100.757812 -85.535156 100.757812 L -105.992188 100.757812 Z M -105.992188 108.207031 " fill-opacity="1" fill-rule="nonzero"/></g><g clip-path="url(#54c7f7af96)"><path fill="#a983a2" d="M -105.992188 143.789062 L -85.535156 147.261719 C -65.164062 150.65625 -24.253906 157.605469 16.40625 161.992188 C 57.148438 166.378906 97.726562 168.363281 138.472656 159.511719 C 179.132812 150.65625 220.042969 131.128906 260.867188 131.210938 C 301.695312 131.375 342.605469 151.234375 383.265625 153.304688 C 424.007812 155.371094 464.585938 139.652344 505.332031 133.445312 C 545.992188 127.238281 586.902344 130.546875 627.726562 135.761719 C 668.554688 141.058594 709.464844 148.171875 750.289062 149 C 791.117188 149.828125 832.027344 144.367188 872.6875 145.277344 C 913.429688 146.269531 954.007812 153.71875 994.753906 159.097656 C 1035.414062 164.476562 1076.324219 167.785156 1117.148438 161.332031 C 1157.976562 154.792969 1198.886719 138.574219 1239.546875 132.453125 C 1280.289062 126.410156 1320.867188 130.546875 1361.613281 130.714844 C 1402.273438 130.796875 1443.183594 126.988281 1463.554688 125.003906 L 1484.007812 123.101562 L 1484.007812 100.757812 L 1463.554688 100.757812 C 1443.183594 100.757812 1402.273438 100.757812 1361.613281 100.757812 C 1320.867188 100.757812 1280.289062 100.757812 1239.546875 100.757812 C 1198.886719 100.757812 1157.976562 100.757812 1117.148438 100.757812 C 1076.324219 100.757812 1035.414062 100.757812 994.753906 100.757812 C 954.007812 100.757812 913.429688 100.757812 872.6875 100.757812 C 832.027344 100.757812 791.117188 100.757812 750.289062 100.757812 C 709.464844 100.757812 668.554688 100.757812 627.726562 100.757812 C 586.902344 100.757812 545.992188 100.757812 505.332031 100.757812 C 464.585938 100.757812 424.007812 100.757812 383.265625 100.757812 C 342.605469 100.757812 301.695312 100.757812 260.867188 100.757812 C 220.042969 100.757812 179.132812 100.757812 138.472656 100.757812 C 97.726562 100.757812 57.148438 100.757812 16.40625 100.757812 C -24.253906 100.757812 -65.164062 100.757812 -85.535156 100.757812 L -105.992188 100.757812 Z M -105.992188 143.789062 " fill-opacity="1" fill-rule="nonzero"/></g><g clip-path="url(#7062f79ea9)"><path fill="#b2a0c4" d="M -105.992188 151.234375 L -85.535156 148.917969 C -65.164062 146.519531 -24.253906 141.886719 16.40625 137.746094 C 57.148438 133.609375 97.726562 129.96875 138.472656 125.75 C 179.132812 121.445312 220.042969 116.480469 260.867188 121.609375 C 301.695312 126.660156 342.605469 141.886719 383.265625 146.023438 C 424.007812 150.160156 464.585938 143.207031 505.332031 137.332031 C 545.992188 131.375 586.902344 126.410156 627.726562 122.4375 C 668.554688 118.382812 709.464844 115.40625 750.289062 114.578125 C 791.117188 113.75 832.027344 115.074219 872.6875 121.199219 C 913.429688 127.238281 954.007812 137.996094 994.753906 144.449219 C 1035.414062 150.988281 1076.324219 153.140625 1117.148438 148.339844 C 1157.976562 143.539062 1198.886719 131.625 1239.546875 126.246094 C 1280.289062 120.867188 1320.867188 122.023438 1361.613281 123.265625 C 1402.273438 124.507812 1443.183594 125.832031 1463.554688 126.574219 L 1484.007812 127.238281 L 1484.007812 100.757812 L 1463.554688 100.757812 C 1443.183594 100.757812 1402.273438 100.757812 1361.613281 100.757812 C 1320.867188 100.757812 1280.289062 100.757812 1239.546875 100.757812 C 1198.886719 100.757812 1157.976562 100.757812 1117.148438 100.757812 C 1076.324219 100.757812 1035.414062 100.757812 994.753906 100.757812 C 954.007812 100.757812 913.429688 100.757812 872.6875 100.757812 C 832.027344 100.757812 791.117188 100.757812 750.289062 100.757812 C 709.464844 100.757812 668.554688 100.757812 627.726562 100.757812 C 586.902344 100.757812 545.992188 100.757812 505.332031 100.757812 C 464.585938 100.757812 424.007812 100.757812 383.265625 100.757812 C 342.605469 100.757812 301.695312 100.757812 260.867188 100.757812 C 220.042969 100.757812 179.132812 100.757812 138.472656 100.757812 C 97.726562 100.757812 57.148438 100.757812 16.40625 100.757812 C -24.253906 100.757812 -65.164062 100.757812 -85.535156 100.757812 L -105.992188 100.757812 Z M -105.992188 151.234375 " fill-opacity="1" fill-rule="nonzero"/></g><g clip-path="url(#c74dfe01fd)"><path fill="#babde2" d="M -105.992188 127.238281 L -85.535156 127.238281 C -65.164062 127.238281 -24.253906 127.238281 16.40625 127.402344 C 57.148438 127.488281 97.726562 127.816406 138.472656 126.824219 C 179.132812 125.832031 220.042969 123.679688 260.867188 119.625 C 301.695312 115.652344 342.605469 109.859375 383.265625 108.371094 C 424.007812 106.800781 464.585938 109.613281 505.332031 112.09375 C 545.992188 114.578125 586.902344 116.730469 627.726562 115.902344 C 668.554688 115.074219 709.464844 111.265625 750.289062 113.75 C 791.117188 116.230469 832.027344 125.003906 872.6875 128.230469 C 913.429688 131.375 954.007812 128.894531 994.753906 127.898438 C 1035.414062 126.988281 1076.324219 127.488281 1117.148438 124.921875 C 1157.976562 122.273438 1198.886719 116.480469 1239.546875 115.902344 C 1280.289062 115.40625 1320.867188 120.039062 1361.613281 119.542969 C 1402.273438 118.964844 1443.183594 113.171875 1463.554688 110.273438 L 1484.007812 107.378906 L 1484.007812 100.757812 L 1463.554688 100.757812 C 1443.183594 100.757812 1402.273438 100.757812 1361.613281 100.757812 C 1320.867188 100.757812 1280.289062 100.757812 1239.546875 100.757812 C 1198.886719 100.757812 1157.976562 100.757812 1117.148438 100.757812 C 1076.324219 100.757812 1035.414062 100.757812 994.753906 100.757812 C 954.007812 100.757812 913.429688 100.757812 872.6875 100.757812 C 832.027344 100.757812 791.117188 100.757812 750.289062 100.757812 C 709.464844 100.757812 668.554688 100.757812 627.726562 100.757812 C 586.902344 100.757812 545.992188 100.757812 505.332031 100.757812 C 464.585938 100.757812 424.007812 100.757812 383.265625 100.757812 C 342.605469 100.757812 301.695312 100.757812 260.867188 100.757812 C 220.042969 100.757812 179.132812 100.757812 138.472656 100.757812 C 97.726562 100.757812 57.148438 100.757812 16.40625 100.757812 C -24.253906 100.757812 -65.164062 100.757812 -85.535156 100.757812 L -105.992188 100.757812 Z M -105.992188 127.238281 " fill-opacity="1" fill-rule="nonzero"/></g><g clip-path="url(#81d432e38d)"><path fill="#895159" d="M -64.824219 70.691406 L -50.84375 69.515625 C -36.78125 68.335938 -8.816406 65.984375 19.070312 57.976562 C 46.957031 50.046875 74.761719 36.386719 102.648438 32.621094 C 130.535156 28.851562 158.5 34.816406 186.542969 38.507812 C 214.585938 42.195312 242.550781 43.453125 270.4375 49.734375 C 298.324219 56.011719 326.132812 67.316406 354.019531 71.632812 C 381.902344 75.953125 409.867188 73.285156 437.914062 71.476562 C 465.957031 69.671875 493.921875 68.574219 521.804688 61.664062 C 549.691406 54.757812 577.5 41.882812 605.386719 42.589844 C 633.273438 43.21875 661.238281 57.347656 689.28125 64.253906 C 717.324219 71.242188 745.289062 70.929688 773.175781 63.390625 C 801.0625 55.777344 828.867188 40.863281 856.753906 29.714844 C 884.640625 18.648438 912.605469 11.269531 940.648438 17.3125 C 968.691406 23.355469 996.65625 42.667969 1024.542969 53.578125 C 1052.429688 64.414062 1080.238281 66.769531 1108.125 67.394531 C 1136.011719 68.101562 1163.976562 67.003906 1192.019531 64.960938 C 1220.0625 62.84375 1248.027344 59.703125 1275.914062 59.308594 C 1303.800781 58.917969 1331.605469 61.273438 1359.492188 61.429688 C 1387.378906 61.507812 1415.34375 59.46875 1429.40625 58.367188 L 1443.386719 57.347656 L 1443.386719 113.082031 L 1429.40625 113.082031 C 1415.34375 113.082031 1387.378906 113.082031 1359.492188 113.082031 C 1331.605469 113.082031 1303.800781 113.082031 1275.914062 113.082031 C 1248.027344 113.082031 1220.0625 113.082031 1192.019531 113.082031 C 1163.976562 113.082031 1136.011719 113.082031 1108.125 113.082031 C 1080.238281 113.082031 1052.429688 113.082031 1024.542969 113.082031 C 996.65625 113.082031 968.691406 113.082031 940.648438 113.082031 C 912.605469 113.082031 884.640625 113.082031 856.753906 113.082031 C 828.867188 113.082031 801.0625 113.082031 773.175781 113.082031 C 745.289062 113.082031 717.324219 113.082031 689.28125 113.082031 C 661.238281 113.082031 633.273438 113.082031 605.386719 113.082031 C 577.5 113.082031 549.691406 113.082031 521.804688 113.082031 C 493.921875 113.082031 465.957031 113.082031 437.914062 113.082031 C 409.867188 113.082031 381.902344 113.082031 354.019531 113.082031 C 326.132812 113.082031 298.324219 113.082031 270.4375 113.082031 C 242.550781 113.082031 214.585938 113.082031 186.542969 113.082031 C 158.5 113.082031 130.535156 113.082031 102.648438 113.082031 C 74.761719 113.082031 46.957031 113.082031 19.070312 113.082031 C -8.816406 113.082031 -36.78125 113.082031 -50.84375 113.082031 L -64.824219 113.082031 Z M -64.824219 70.691406 " fill-opacity="1" fill-rule="nonzero"/></g><g clip-path="url(#450a1296bc)"><path fill="#986476" d="M -64.824219 69.121094 L -50.84375 60.644531 C -36.78125 52.089844 -8.816406 35.132812 19.070312 32.777344 C 46.957031 30.421875 74.761719 42.667969 102.648438 51.617188 C 130.535156 60.488281 158.5 65.984375 186.542969 61.902344 C 214.585938 57.898438 242.550781 44.238281 270.4375 46.199219 C 298.324219 48.164062 326.132812 65.746094 354.019531 73.597656 C 381.902344 81.445312 409.867188 79.5625 437.914062 75.796875 C 465.957031 72.027344 493.921875 66.21875 521.804688 67.710938 C 549.691406 69.121094 577.5 77.757812 605.386719 75.796875 C 633.273438 73.832031 661.238281 61.273438 689.28125 59.859375 C 717.324219 58.367188 745.289062 68.101562 773.175781 62.449219 C 801.0625 56.796875 828.867188 35.917969 856.753906 35.132812 C 884.640625 34.347656 912.605469 53.660156 940.648438 62.292969 C 968.691406 70.929688 996.65625 68.886719 1024.542969 60.332031 C 1052.429688 51.851562 1080.238281 36.9375 1108.125 31.285156 C 1136.011719 25.710938 1163.976562 29.324219 1192.019531 38.664062 C 1220.0625 47.925781 1248.027344 62.84375 1275.914062 68.335938 C 1303.800781 73.832031 1331.605469 69.90625 1359.492188 62.84375 C 1387.378906 55.777344 1415.34375 45.574219 1429.40625 40.46875 L 1443.386719 35.367188 L 1443.386719 113.082031 L 1429.40625 113.082031 C 1415.34375 113.082031 1387.378906 113.082031 1359.492188 113.082031 C 1331.605469 113.082031 1303.800781 113.082031 1275.914062 113.082031 C 1248.027344 113.082031 1220.0625 113.082031 1192.019531 113.082031 C 1163.976562 113.082031 1136.011719 113.082031 1108.125 113.082031 C 1080.238281 113.082031 1052.429688 113.082031 1024.542969 113.082031 C 996.65625 113.082031 968.691406 113.082031 940.648438 113.082031 C 912.605469 113.082031 884.640625 113.082031 856.753906 113.082031 C 828.867188 113.082031 801.0625 113.082031 773.175781 113.082031 C 745.289062 113.082031 717.324219 113.082031 689.28125 113.082031 C 661.238281 113.082031 633.273438 113.082031 605.386719 113.082031 C 577.5 113.082031 549.691406 113.082031 521.804688 113.082031 C 493.921875 113.082031 465.957031 113.082031 437.914062 113.082031 C 409.867188 113.082031 381.902344 113.082031 354.019531 113.082031 C 326.132812 113.082031 298.324219 113.082031 270.4375 113.082031 C 242.550781 113.082031 214.585938 113.082031 186.542969 113.082031 C 158.5 113.082031 130.535156 113.082031 102.648438 113.082031 C 74.761719 113.082031 46.957031 113.082031 19.070312 113.082031 C -8.816406 113.082031 -36.78125 113.082031 -50.84375 113.082031 L -64.824219 113.082031 Z M -64.824219 69.121094 " fill-opacity="1" fill-rule="nonzero"/></g><g clip-path="url(#9f251c507c)"><path fill="#a47894" d="M -64.824219 90.316406 L -50.84375 86.394531 C -36.78125 82.46875 -8.816406 74.617188 19.070312 70.066406 C 46.957031 65.433594 74.761719 64.175781 102.648438 64.019531 C 130.535156 63.863281 158.5 64.960938 186.542969 63 C 214.585938 61.039062 242.550781 56.011719 270.4375 57.976562 C 298.324219 59.9375 326.132812 68.886719 354.019531 67.550781 C 381.902344 66.21875 409.867188 54.757812 437.914062 52.007812 C 465.957031 49.261719 493.921875 55.226562 521.804688 63.390625 C 549.691406 71.476562 577.5 81.683594 605.386719 86 C 633.273438 90.316406 661.238281 88.746094 689.28125 80.347656 C 717.324219 72.027344 745.289062 56.796875 773.175781 49.890625 C 801.0625 42.980469 828.867188 44.238281 856.753906 43.847656 C 884.640625 43.453125 912.605469 41.414062 940.648438 46.90625 C 968.691406 52.402344 996.65625 65.433594 1024.542969 64.648438 C 1052.429688 63.863281 1080.238281 49.261719 1108.125 43.375 C 1136.011719 37.488281 1163.976562 40.3125 1192.019531 49.339844 C 1220.0625 58.367188 1248.027344 73.597656 1275.914062 77.207031 C 1303.800781 80.898438 1331.605469 73.046875 1359.492188 71.242188 C 1387.378906 69.359375 1415.34375 73.597656 1429.40625 75.636719 L 1443.386719 77.757812 L 1443.386719 113.082031 L 1429.40625 113.082031 C 1415.34375 113.082031 1387.378906 113.082031 1359.492188 113.082031 C 1331.605469 113.082031 1303.800781 113.082031 1275.914062 113.082031 C 1248.027344 113.082031 1220.0625 113.082031 1192.019531 113.082031 C 1163.976562 113.082031 1136.011719 113.082031 1108.125 113.082031 C 1080.238281 113.082031 1052.429688 113.082031 1024.542969 113.082031 C 996.65625 113.082031 968.691406 113.082031 940.648438 113.082031 C 912.605469 113.082031 884.640625 113.082031 856.753906 113.082031 C 828.867188 113.082031 801.0625 113.082031 773.175781 113.082031 C 745.289062 113.082031 717.324219 113.082031 689.28125 113.082031 C 661.238281 113.082031 633.273438 113.082031 605.386719 113.082031 C 577.5 113.082031 549.691406 113.082031 521.804688 113.082031 C 493.921875 113.082031 465.957031 113.082031 437.914062 113.082031 C 409.867188 113.082031 381.902344 113.082031 354.019531 113.082031 C 326.132812 113.082031 298.324219 113.082031 270.4375 113.082031 C 242.550781 113.082031 214.585938 113.082031 186.542969 113.082031 C 158.5 113.082031 130.535156 113.082031 102.648438 113.082031 C 74.761719 113.082031 46.957031 113.082031 19.070312 113.082031 C -8.816406 113.082031 -36.78125 113.082031 -50.84375 113.082031 L -64.824219 113.082031 Z M -64.824219 90.316406 " fill-opacity="1" fill-rule="nonzero"/></g><g clip-path="url(#92efe191e9)"><path fill="#ad8eb0" d="M -64.824219 51.066406 L -50.84375 51.851562 C -36.78125 52.636719 -8.816406 54.207031 19.070312 60.644531 C 46.957031 67.003906 74.761719 78.308594 102.648438 79.484375 C 130.535156 80.664062 158.5 71.714844 186.542969 71.085938 C 214.585938 70.457031 242.550781 77.992188 270.4375 79.71875 C 298.324219 81.445312 326.132812 77.207031 354.019531 74.066406 C 381.902344 70.929688 409.867188 68.886719 437.914062 70.929688 C 465.957031 73.046875 493.921875 79.328125 521.804688 77.601562 C 549.691406 75.953125 577.5 66.21875 605.386719 65.039062 C 633.273438 63.863281 661.238281 71.242188 689.28125 70.066406 C 717.324219 68.886719 745.289062 59.152344 773.175781 58.367188 C 801.0625 57.582031 828.867188 65.746094 856.753906 66.609375 C 884.640625 67.550781 912.605469 61.273438 940.648438 63.863281 C 968.691406 66.53125 996.65625 77.992188 1024.542969 84.980469 C 1052.429688 91.886719 1080.238281 94.242188 1108.125 88.511719 C 1136.011719 82.703125 1163.976562 68.886719 1192.019531 62.605469 C 1220.0625 56.328125 1248.027344 57.582031 1275.914062 59.703125 C 1303.800781 61.820312 1331.605469 64.648438 1359.492188 68.496094 C 1387.378906 72.261719 1415.34375 76.972656 1429.40625 79.328125 L 1443.386719 81.683594 L 1443.386719 113.082031 L 1429.40625 113.082031 C 1415.34375 113.082031 1387.378906 113.082031 1359.492188 113.082031 C 1331.605469 113.082031 1303.800781 113.082031 1275.914062 113.082031 C 1248.027344 113.082031 1220.0625 113.082031 1192.019531 113.082031 C 1163.976562 113.082031 1136.011719 113.082031 1108.125 113.082031 C 1080.238281 113.082031 1052.429688 113.082031 1024.542969 113.082031 C 996.65625 113.082031 968.691406 113.082031 940.648438 113.082031 C 912.605469 113.082031 884.640625 113.082031 856.753906 113.082031 C 828.867188 113.082031 801.0625 113.082031 773.175781 113.082031 C 745.289062 113.082031 717.324219 113.082031 689.28125 113.082031 C 661.238281 113.082031 633.273438 113.082031 605.386719 113.082031 C 577.5 113.082031 549.691406 113.082031 521.804688 113.082031 C 493.921875 113.082031 465.957031 113.082031 437.914062 113.082031 C 409.867188 113.082031 381.902344 113.082031 354.019531 113.082031 C 326.132812 113.082031 298.324219 113.082031 270.4375 113.082031 C 242.550781 113.082031 214.585938 113.082031 186.542969 113.082031 C 158.5 113.082031 130.535156 113.082031 102.648438 113.082031 C 74.761719 113.082031 46.957031 113.082031 19.070312 113.082031 C -8.816406 113.082031 -36.78125 113.082031 -50.84375 113.082031 L -64.824219 113.082031 Z M -64.824219 51.066406 " fill-opacity="1" fill-rule="nonzero"/></g><g clip-path="url(#ce36b5bd1b)"><path fill="#b4a5ca" d="M -64.824219 67.550781 L -50.84375 67.789062 C -36.78125 68.101562 -8.816406 68.574219 19.070312 74.773438 C 46.957031 80.898438 74.761719 92.671875 102.648438 94.085938 C 130.535156 95.578125 158.5 86.628906 186.542969 80.347656 C 214.585938 74.066406 242.550781 70.457031 270.4375 73.832031 C 298.324219 77.207031 326.132812 87.726562 354.019531 92.125 C 381.902344 96.597656 409.867188 95.027344 437.914062 91.730469 C 465.957031 88.511719 493.921875 83.488281 521.804688 83.644531 C 549.691406 83.800781 577.5 88.984375 605.386719 87.960938 C 633.273438 86.941406 661.238281 79.5625 689.28125 78.699219 C 717.324219 77.757812 745.289062 83.253906 773.175781 85.609375 C 801.0625 87.960938 828.867188 87.175781 856.753906 84.195312 C 884.640625 81.132812 912.605469 75.953125 940.648438 73.675781 C 968.691406 71.476562 996.65625 72.261719 1024.542969 77.601562 C 1052.429688 83.015625 1080.238281 92.90625 1108.125 93.222656 C 1136.011719 93.457031 1163.976562 84.039062 1192.019531 81.289062 C 1220.0625 78.542969 1248.027344 82.46875 1275.914062 86.628906 C 1303.800781 90.867188 1331.605469 95.261719 1359.492188 94.398438 C 1387.378906 93.457031 1415.34375 87.175781 1429.40625 84.039062 L 1443.386719 80.898438 L 1443.386719 113.082031 L 1429.40625 113.082031 C 1415.34375 113.082031 1387.378906 113.082031 1359.492188 113.082031 C 1331.605469 113.082031 1303.800781 113.082031 1275.914062 113.082031 C 1248.027344 113.082031 1220.0625 113.082031 1192.019531 113.082031 C 1163.976562 113.082031 1136.011719 113.082031 1108.125 113.082031 C 1080.238281 113.082031 1052.429688 113.082031 1024.542969 113.082031 C 996.65625 113.082031 968.691406 113.082031 940.648438 113.082031 C 912.605469 113.082031 884.640625 113.082031 856.753906 113.082031 C 828.867188 113.082031 801.0625 113.082031 773.175781 113.082031 C 745.289062 113.082031 717.324219 113.082031 689.28125 113.082031 C 661.238281 113.082031 633.273438 113.082031 605.386719 113.082031 C 577.5 113.082031 549.691406 113.082031 521.804688 113.082031 C 493.921875 113.082031 465.957031 113.082031 437.914062 113.082031 C 409.867188 113.082031 381.902344 113.082031 354.019531 113.082031 C 326.132812 113.082031 298.324219 113.082031 270.4375 113.082031 C 242.550781 113.082031 214.585938 113.082031 186.542969 113.082031 C 158.5 113.082031 130.535156 113.082031 102.648438 113.082031 C 74.761719 113.082031 46.957031 113.082031 19.070312 113.082031 C -8.816406 113.082031 -36.78125 113.082031 -50.84375 113.082031 L -64.824219 113.082031 Z M -64.824219 67.550781 " fill-opacity="1" fill-rule="nonzero"/></g><g clip-path="url(#7c9f587a72)"><path fill="#babde2" d="M -64.824219 109.941406 L -50.84375 107.195312 C -36.78125 104.449219 -8.816406 98.953125 19.070312 95.96875 C 46.957031 92.90625 74.761719 92.4375 102.648438 90.082031 C 130.535156 87.726562 158.5 83.488281 186.542969 86 C 214.585938 88.511719 242.550781 97.617188 270.4375 98.953125 C 298.324219 100.289062 326.132812 93.691406 354.019531 92.828125 C 381.902344 91.886719 409.867188 96.597656 437.914062 97.933594 C 465.957031 99.1875 493.921875 97.148438 521.804688 95.421875 C 549.691406 93.691406 577.5 92.4375 605.386719 93.066406 C 633.273438 93.691406 661.238281 96.363281 689.28125 96.832031 C 717.324219 97.382812 745.289062 95.8125 773.175781 92.671875 C 801.0625 89.53125 828.867188 84.824219 856.753906 85.449219 C 884.640625 86.15625 912.605469 92.125 940.648438 96.207031 C 968.691406 100.289062 996.65625 102.328125 1024.542969 101.464844 C 1052.429688 100.523438 1080.238281 96.597656 1108.125 95.96875 C 1136.011719 95.261719 1163.976562 97.933594 1192.019531 97.148438 C 1220.0625 96.363281 1248.027344 92.125 1275.914062 93.691406 C 1303.800781 95.261719 1331.605469 102.640625 1359.492188 101.308594 C 1387.378906 99.972656 1415.34375 90.082031 1429.40625 85.058594 L 1443.386719 80.113281 L 1443.386719 113.082031 L 1429.40625 113.082031 C 1415.34375 113.082031 1387.378906 113.082031 1359.492188 113.082031 C 1331.605469 113.082031 1303.800781 113.082031 1275.914062 113.082031 C 1248.027344 113.082031 1220.0625 113.082031 1192.019531 113.082031 C 1163.976562 113.082031 1136.011719 113.082031 1108.125 113.082031 C 1080.238281 113.082031 1052.429688 113.082031 1024.542969 113.082031 C 996.65625 113.082031 968.691406 113.082031 940.648438 113.082031 C 912.605469 113.082031 884.640625 113.082031 856.753906 113.082031 C 828.867188 113.082031 801.0625 113.082031 773.175781 113.082031 C 745.289062 113.082031 717.324219 113.082031 689.28125 113.082031 C 661.238281 113.082031 633.273438 113.082031 605.386719 113.082031 C 577.5 113.082031 549.691406 113.082031 521.804688 113.082031 C 493.921875 113.082031 465.957031 113.082031 437.914062 113.082031 C 409.867188 113.082031 381.902344 113.082031 354.019531 113.082031 C 326.132812 113.082031 298.324219 113.082031 270.4375 113.082031 C 242.550781 113.082031 214.585938 113.082031 186.542969 113.082031 C 158.5 113.082031 130.535156 113.082031 102.648438 113.082031 C 74.761719 113.082031 46.957031 113.082031 19.070312 113.082031 C -8.816406 113.082031 -36.78125 113.082031 -50.84375 113.082031 L -64.824219 113.082031 Z M -64.824219 109.941406 " fill-opacity="1" fill-rule="nonzero"/></g></svg>