<svg xmlns="http://www.w3.org/2000/svg" xmlns:xlink="http://www.w3.org/1999/xlink" width="1920" zoomAndPan="magnify" viewBox="0 0 1440 225" height="300" preserveAspectRatio="xMidYMid meet" version="1.0"><defs><clipPath id="7ae4e507b2"><path d="M 0 96.15625 L 1440 96.15625 L 1440 195 L 0 195 Z M 0 96.15625 " clip-rule="nonzero"/></clipPath><clipPath id="fbedc9ef06"><path d="M 0 96.15625 L 1440 96.15625 L 1440 181 L 0 181 Z M 0 96.15625 " clip-rule="nonzero"/></clipPath><clipPath id="2d60b9de3a"><path d="M 0 96.15625 L 1440 96.15625 L 1440 169 L 0 169 Z M 0 96.15625 " clip-rule="nonzero"/></clipPath><clipPath id="c8efd316ff"><path d="M 0 96.15625 L 1440 96.15625 L 1440 158 L 0 158 Z M 0 96.15625 " clip-rule="nonzero"/></clipPath><clipPath id="4e059c437d"><path d="M 0 96.15625 L 1440 96.15625 L 1440 141 L 0 141 Z M 0 96.15625 " clip-rule="nonzero"/></clipPath><clipPath id="3c7aa408d7"><path d="M 0 96.15625 L 1440 96.15625 L 1440 128 L 0 128 Z M 0 96.15625 " clip-rule="nonzero"/></clipPath><clipPath id="ebe0520b05"><path d="M 0 9 L 1440 9 L 1440 105.660156 L 0 105.660156 Z M 0 9 " clip-rule="nonzero"/></clipPath><clipPath id="21d36372a5"><path d="M 0 30 L 1440 30 L 1440 105.660156 L 0 105.660156 Z M 0 30 " clip-rule="nonzero"/></clipPath><clipPath id="28080eabd5"><path d="M 0 43 L 1440 43 L 1440 105.660156 L 0 105.660156 Z M 0 43 " clip-rule="nonzero"/></clipPath><clipPath id="570e297cec"><path d="M 0 59 L 1440 59 L 1440 105.660156 L 0 105.660156 Z M 0 59 " clip-rule="nonzero"/></clipPath><clipPath id="9dcc908a3b"><path d="M 0 77 L 1440 77 L 1440 105.660156 L 0 105.660156 Z M 0 77 " clip-rule="nonzero"/></clipPath></defs><g clip-path="url(#7ae4e507b2)"><path fill="#895159" d="M -95.238281 137.46875 L -80.804688 138.683594 C -66.289062 139.898438 -37.417969 142.328125 -8.628906 150.589844 C 20.15625 158.769531 48.863281 172.863281 77.652344 176.753906 C 106.441406 180.640625 135.308594 174.484375 164.257812 170.675781 C 193.207031 166.871094 222.078125 165.574219 250.867188 159.09375 C 279.652344 152.613281 308.359375 140.949219 337.148438 136.496094 C 365.9375 132.039062 394.804688 134.792969 423.753906 136.65625 C 452.703125 138.519531 481.574219 139.652344 510.363281 146.78125 C 539.148438 153.910156 567.855469 167.195312 596.644531 166.464844 C 625.433594 165.816406 654.300781 151.238281 683.25 144.109375 C 712.199219 136.898438 741.070312 137.222656 769.859375 145 C 798.644531 152.855469 827.351562 168.246094 856.140625 179.75 C 884.929688 191.171875 913.796875 198.785156 942.746094 192.546875 C 971.695312 186.308594 1000.566406 166.382812 1029.355469 155.125 C 1058.140625 143.945312 1086.847656 141.515625 1115.636719 140.871094 C 1144.425781 140.140625 1173.292969 141.273438 1202.242188 143.378906 C 1231.191406 145.566406 1260.0625 148.808594 1288.851562 149.210938 C 1317.636719 149.617188 1346.34375 147.1875 1375.132812 147.023438 C 1403.921875 146.945312 1432.789062 149.050781 1447.304688 150.183594 L 1461.738281 151.238281 L 1461.738281 96.15625 L 1447.304688 96.15625 C 1432.789062 96.15625 1403.921875 96.15625 1375.132812 96.15625 C 1346.34375 96.15625 1317.636719 96.15625 1288.851562 96.15625 C 1260.0625 96.15625 1231.191406 96.15625 1202.242188 96.15625 C 1173.292969 96.15625 1144.425781 96.15625 1115.636719 96.15625 C 1086.847656 96.15625 1058.140625 96.15625 1029.355469 96.15625 C 1000.566406 96.15625 971.695312 96.15625 942.746094 96.15625 C 913.796875 96.15625 884.929688 96.15625 856.140625 96.15625 C 827.351562 96.15625 798.644531 96.15625 769.859375 96.15625 C 741.070312 96.15625 712.199219 96.15625 683.25 96.15625 C 654.300781 96.15625 625.433594 96.15625 596.644531 96.15625 C 567.855469 96.15625 539.148438 96.15625 510.363281 96.15625 C 481.574219 96.15625 452.703125 96.15625 423.753906 96.15625 C 394.804688 96.15625 365.9375 96.15625 337.148438 96.15625 C 308.359375 96.15625 279.652344 96.15625 250.867188 96.15625 C 222.078125 96.15625 193.207031 96.15625 164.257812 96.15625 C 135.308594 96.15625 106.441406 96.15625 77.652344 96.15625 C 48.863281 96.15625 20.15625 96.15625 -8.628906 96.15625 C -37.417969 96.15625 -66.289062 96.15625 -80.804688 96.15625 L -95.238281 96.15625 Z M -95.238281 137.46875 " fill-opacity="1" fill-rule="nonzero"/></g><g clip-path="url(#fbedc9ef06)"><path fill="#986476" d="M -95.238281 139.085938 L -80.804688 147.835938 C -66.289062 156.664062 -37.417969 174.160156 -8.628906 176.589844 C 20.15625 179.019531 48.863281 166.382812 77.652344 157.148438 C 106.441406 147.996094 135.308594 142.328125 164.257812 146.539062 C 193.207031 150.671875 222.078125 164.765625 250.867188 162.738281 C 279.652344 160.714844 308.359375 142.570312 337.148438 134.46875 C 365.9375 126.371094 394.804688 128.3125 423.753906 132.203125 C 452.703125 136.089844 481.574219 142.085938 510.363281 140.546875 C 539.148438 139.085938 567.855469 130.175781 596.644531 132.203125 C 625.433594 134.226562 654.300781 147.1875 683.25 148.644531 C 712.199219 150.183594 741.070312 140.140625 769.859375 145.972656 C 798.644531 151.804688 827.351562 173.351562 856.140625 174.160156 C 884.929688 174.96875 913.796875 155.042969 942.746094 146.132812 C 971.695312 137.222656 1000.566406 139.332031 1029.355469 148.160156 C 1058.140625 156.90625 1086.847656 172.296875 1115.636719 178.128906 C 1144.425781 183.878906 1173.292969 180.152344 1202.242188 170.515625 C 1231.191406 160.957031 1260.0625 145.566406 1288.851562 139.898438 C 1317.636719 134.226562 1346.34375 138.277344 1375.132812 145.566406 C 1403.921875 152.855469 1432.789062 163.386719 1447.304688 168.652344 L 1461.738281 173.917969 L 1461.738281 96.15625 L 1447.304688 96.15625 C 1432.789062 96.15625 1403.921875 96.15625 1375.132812 96.15625 C 1346.34375 96.15625 1317.636719 96.15625 1288.851562 96.15625 C 1260.0625 96.15625 1231.191406 96.15625 1202.242188 96.15625 C 1173.292969 96.15625 1144.425781 96.15625 1115.636719 96.15625 C 1086.847656 96.15625 1058.140625 96.15625 1029.355469 96.15625 C 1000.566406 96.15625 971.695312 96.15625 942.746094 96.15625 C 913.796875 96.15625 884.929688 96.15625 856.140625 96.15625 C 827.351562 96.15625 798.644531 96.15625 769.859375 96.15625 C 741.070312 96.15625 712.199219 96.15625 683.25 96.15625 C 654.300781 96.15625 625.433594 96.15625 596.644531 96.15625 C 567.855469 96.15625 539.148438 96.15625 510.363281 96.15625 C 481.574219 96.15625 452.703125 96.15625 423.753906 96.15625 C 394.804688 96.15625 365.9375 96.15625 337.148438 96.15625 C 308.359375 96.15625 279.652344 96.15625 250.867188 96.15625 C 222.078125 96.15625 193.207031 96.15625 164.257812 96.15625 C 135.308594 96.15625 106.441406 96.15625 77.652344 96.15625 C 48.863281 96.15625 20.15625 96.15625 -8.628906 96.15625 C -37.417969 96.15625 -66.289062 96.15625 -80.804688 96.15625 L -95.238281 96.15625 Z M -95.238281 139.085938 " fill-opacity="1" fill-rule="nonzero"/></g><g clip-path="url(#2d60b9de3a)"><path fill="#a47894" d="M -95.238281 117.21875 L -80.804688 121.265625 C -66.289062 125.316406 -37.417969 133.417969 -8.628906 138.113281 C 20.15625 142.894531 48.863281 144.191406 77.652344 144.351562 C 106.441406 144.515625 135.308594 143.378906 164.257812 145.40625 C 193.207031 147.429688 222.078125 152.613281 250.867188 150.589844 C 279.652344 148.5625 308.359375 139.332031 337.148438 140.707031 C 365.9375 142.085938 394.804688 153.910156 423.753906 156.746094 C 452.703125 159.582031 481.574219 153.425781 510.363281 145 C 539.148438 136.65625 567.855469 126.128906 596.644531 121.671875 C 625.433594 117.21875 654.300781 118.835938 683.25 127.503906 C 712.199219 136.089844 741.070312 151.804688 769.859375 158.933594 C 798.644531 166.058594 827.351562 164.765625 856.140625 165.167969 C 884.929688 165.574219 913.796875 167.679688 942.746094 162.011719 C 971.695312 156.339844 1000.566406 142.894531 1029.355469 143.703125 C 1058.140625 144.515625 1086.847656 159.582031 1115.636719 165.65625 C 1144.425781 171.730469 1173.292969 168.8125 1202.242188 159.5 C 1231.191406 150.183594 1260.0625 134.46875 1288.851562 130.746094 C 1317.636719 126.9375 1346.34375 135.039062 1375.132812 136.898438 C 1403.921875 138.84375 1432.789062 134.46875 1447.304688 132.363281 L 1461.738281 130.175781 L 1461.738281 96.15625 L 1447.304688 96.15625 C 1432.789062 96.15625 1403.921875 96.15625 1375.132812 96.15625 C 1346.34375 96.15625 1317.636719 96.15625 1288.851562 96.15625 C 1260.0625 96.15625 1231.191406 96.15625 1202.242188 96.15625 C 1173.292969 96.15625 1144.425781 96.15625 1115.636719 96.15625 C 1086.847656 96.15625 1058.140625 96.15625 1029.355469 96.15625 C 1000.566406 96.15625 971.695312 96.15625 942.746094 96.15625 C 913.796875 96.15625 884.929688 96.15625 856.140625 96.15625 C 827.351562 96.15625 798.644531 96.15625 769.859375 96.15625 C 741.070312 96.15625 712.199219 96.15625 683.25 96.15625 C 654.300781 96.15625 625.433594 96.15625 596.644531 96.15625 C 567.855469 96.15625 539.148438 96.15625 510.363281 96.15625 C 481.574219 96.15625 452.703125 96.15625 423.753906 96.15625 C 394.804688 96.15625 365.9375 96.15625 337.148438 96.15625 C 308.359375 96.15625 279.652344 96.15625 250.867188 96.15625 C 222.078125 96.15625 193.207031 96.15625 164.257812 96.15625 C 135.308594 96.15625 106.441406 96.15625 77.652344 96.15625 C 48.863281 96.15625 20.15625 96.15625 -8.628906 96.15625 C -37.417969 96.15625 -66.289062 96.15625 -80.804688 96.15625 L -95.238281 96.15625 Z M -95.238281 117.21875 " fill-opacity="1" fill-rule="nonzero"/></g><g clip-path="url(#c8efd316ff)"><path fill="#ad8eb0" d="M -95.238281 157.71875 L -80.804688 156.90625 C -66.289062 156.097656 -37.417969 154.476562 -8.628906 147.835938 C 20.15625 141.273438 48.863281 129.609375 77.652344 128.394531 C 106.441406 127.179688 135.308594 136.414062 164.257812 137.0625 C 193.207031 137.710938 222.078125 129.933594 250.867188 128.152344 C 279.652344 126.371094 308.359375 130.746094 337.148438 133.984375 C 365.9375 137.222656 394.804688 139.332031 423.753906 137.222656 C 452.703125 135.039062 481.574219 128.558594 510.363281 130.339844 C 539.148438 132.039062 567.855469 142.085938 596.644531 143.300781 C 625.433594 144.515625 654.300781 136.898438 683.25 138.113281 C 712.199219 139.332031 741.070312 149.375 769.859375 150.183594 C 798.644531 150.996094 827.351562 142.570312 856.140625 141.679688 C 884.929688 140.707031 913.796875 147.1875 942.746094 144.515625 C 971.695312 141.761719 1000.566406 129.933594 1029.355469 122.726562 C 1058.140625 115.597656 1086.847656 113.167969 1115.636719 119.082031 C 1144.425781 125.074219 1173.292969 139.332031 1202.242188 145.808594 C 1231.191406 152.289062 1260.0625 150.996094 1288.851562 148.808594 C 1317.636719 146.621094 1346.34375 143.703125 1375.132812 139.734375 C 1403.921875 135.847656 1432.789062 130.988281 1447.304688 128.558594 L 1461.738281 126.128906 L 1461.738281 96.15625 L 1447.304688 96.15625 C 1432.789062 96.15625 1403.921875 96.15625 1375.132812 96.15625 C 1346.34375 96.15625 1317.636719 96.15625 1288.851562 96.15625 C 1260.0625 96.15625 1231.191406 96.15625 1202.242188 96.15625 C 1173.292969 96.15625 1144.425781 96.15625 1115.636719 96.15625 C 1086.847656 96.15625 1058.140625 96.15625 1029.355469 96.15625 C 1000.566406 96.15625 971.695312 96.15625 942.746094 96.15625 C 913.796875 96.15625 884.929688 96.15625 856.140625 96.15625 C 827.351562 96.15625 798.644531 96.15625 769.859375 96.15625 C 741.070312 96.15625 712.199219 96.15625 683.25 96.15625 C 654.300781 96.15625 625.433594 96.15625 596.644531 96.15625 C 567.855469 96.15625 539.148438 96.15625 510.363281 96.15625 C 481.574219 96.15625 452.703125 96.15625 423.753906 96.15625 C 394.804688 96.15625 365.9375 96.15625 337.148438 96.15625 C 308.359375 96.15625 279.652344 96.15625 250.867188 96.15625 C 222.078125 96.15625 193.207031 96.15625 164.257812 96.15625 C 135.308594 96.15625 106.441406 96.15625 77.652344 96.15625 C 48.863281 96.15625 20.15625 96.15625 -8.628906 96.15625 C -37.417969 96.15625 -66.289062 96.15625 -80.804688 96.15625 L -95.238281 96.15625 Z M -95.238281 157.71875 " fill-opacity="1" fill-rule="nonzero"/></g><g clip-path="url(#4e059c437d)"><path fill="#b4a5ca" d="M -95.238281 140.707031 L -80.804688 140.464844 C -66.289062 140.140625 -37.417969 139.652344 -8.628906 133.253906 C 20.15625 126.9375 48.863281 114.789062 77.652344 113.328125 C 106.441406 111.789062 135.308594 121.023438 164.257812 127.503906 C 193.207031 133.984375 222.078125 137.710938 250.867188 134.226562 C 279.652344 130.746094 308.359375 119.890625 337.148438 115.355469 C 365.9375 110.738281 394.804688 112.355469 423.753906 115.757812 C 452.703125 119.082031 481.574219 124.265625 510.363281 124.101562 C 539.148438 123.941406 567.855469 118.59375 596.644531 119.648438 C 625.433594 120.699219 654.300781 128.3125 683.25 129.207031 C 712.199219 130.175781 741.070312 124.507812 769.859375 122.078125 C 798.644531 119.648438 827.351562 120.457031 856.140625 123.535156 C 884.929688 126.695312 913.796875 132.039062 942.746094 134.390625 C 971.695312 136.65625 1000.566406 135.847656 1029.355469 130.339844 C 1058.140625 124.75 1086.847656 114.542969 1115.636719 114.21875 C 1144.425781 113.976562 1173.292969 123.695312 1202.242188 126.53125 C 1231.191406 129.367188 1260.0625 125.316406 1288.851562 121.023438 C 1317.636719 116.648438 1346.34375 112.113281 1375.132812 113.003906 C 1403.921875 113.976562 1432.789062 120.457031 1447.304688 123.695312 L 1461.738281 126.9375 L 1461.738281 96.15625 L 1447.304688 96.15625 C 1432.789062 96.15625 1403.921875 96.15625 1375.132812 96.15625 C 1346.34375 96.15625 1317.636719 96.15625 1288.851562 96.15625 C 1260.0625 96.15625 1231.191406 96.15625 1202.242188 96.15625 C 1173.292969 96.15625 1144.425781 96.15625 1115.636719 96.15625 C 1086.847656 96.15625 1058.140625 96.15625 1029.355469 96.15625 C 1000.566406 96.15625 971.695312 96.15625 942.746094 96.15625 C 913.796875 96.15625 884.929688 96.15625 856.140625 96.15625 C 827.351562 96.15625 798.644531 96.15625 769.859375 96.15625 C 741.070312 96.15625 712.199219 96.15625 683.25 96.15625 C 654.300781 96.15625 625.433594 96.15625 596.644531 96.15625 C 567.855469 96.15625 539.148438 96.15625 510.363281 96.15625 C 481.574219 96.15625 452.703125 96.15625 423.753906 96.15625 C 394.804688 96.15625 365.9375 96.15625 337.148438 96.15625 C 308.359375 96.15625 279.652344 96.15625 250.867188 96.15625 C 222.078125 96.15625 193.207031 96.15625 164.257812 96.15625 C 135.308594 96.15625 106.441406 96.15625 77.652344 96.15625 C 48.863281 96.15625 20.15625 96.15625 -8.628906 96.15625 C -37.417969 96.15625 -66.289062 96.15625 -80.804688 96.15625 L -95.238281 96.15625 Z M -95.238281 140.707031 " fill-opacity="1" fill-rule="nonzero"/></g><g clip-path="url(#3c7aa408d7)"><path fill="#babde2" d="M -95.238281 96.96875 L -80.804688 99.800781 C -66.289062 102.636719 -37.417969 108.308594 -8.628906 111.386719 C 20.15625 114.542969 48.863281 115.03125 77.652344 117.460938 C 106.441406 119.890625 135.308594 124.265625 164.257812 121.671875 C 193.207031 119.082031 222.078125 109.683594 250.867188 108.308594 C 279.652344 106.929688 308.359375 113.734375 337.148438 114.625 C 365.9375 115.597656 394.804688 110.738281 423.753906 109.359375 C 452.703125 108.0625 481.574219 110.171875 510.363281 111.953125 C 539.148438 113.734375 567.855469 115.03125 596.644531 114.382812 C 625.433594 113.734375 654.300781 110.980469 683.25 110.496094 C 712.199219 109.925781 741.070312 111.546875 769.859375 114.789062 C 798.644531 118.027344 827.351562 122.886719 856.140625 122.238281 C 884.929688 121.511719 913.796875 115.355469 942.746094 111.140625 C 971.695312 106.929688 1000.566406 104.824219 1029.355469 105.714844 C 1058.140625 106.6875 1086.847656 110.738281 1115.636719 111.386719 C 1144.425781 112.113281 1173.292969 109.359375 1202.242188 110.171875 C 1231.191406 110.980469 1260.0625 115.355469 1288.851562 113.734375 C 1317.636719 112.113281 1346.34375 104.5 1375.132812 105.878906 C 1403.921875 107.253906 1432.789062 117.460938 1447.304688 122.644531 L 1461.738281 127.746094 L 1461.738281 96.15625 L 1447.304688 96.15625 C 1432.789062 96.15625 1403.921875 96.15625 1375.132812 96.15625 C 1346.34375 96.15625 1317.636719 96.15625 1288.851562 96.15625 C 1260.0625 96.15625 1231.191406 96.15625 1202.242188 96.15625 C 1173.292969 96.15625 1144.425781 96.15625 1115.636719 96.15625 C 1086.847656 96.15625 1058.140625 96.15625 1029.355469 96.15625 C 1000.566406 96.15625 971.695312 96.15625 942.746094 96.15625 C 913.796875 96.15625 884.929688 96.15625 856.140625 96.15625 C 827.351562 96.15625 798.644531 96.15625 769.859375 96.15625 C 741.070312 96.15625 712.199219 96.15625 683.25 96.15625 C 654.300781 96.15625 625.433594 96.15625 596.644531 96.15625 C 567.855469 96.15625 539.148438 96.15625 510.363281 96.15625 C 481.574219 96.15625 452.703125 96.15625 423.753906 96.15625 C 394.804688 96.15625 365.9375 96.15625 337.148438 96.15625 C 308.359375 96.15625 279.652344 96.15625 250.867188 96.15625 C 222.078125 96.15625 193.207031 96.15625 164.257812 96.15625 C 135.308594 96.15625 106.441406 96.15625 77.652344 96.15625 C 48.863281 96.15625 20.15625 96.15625 -8.628906 96.15625 C -37.417969 96.15625 -66.289062 96.15625 -80.804688 96.15625 L -95.238281 96.15625 Z M -95.238281 96.96875 " fill-opacity="1" fill-rule="nonzero"/></g><g clip-path="url(#ebe0520b05)"><path fill="#895159" d="M -22.628906 13.558594 L -12.035156 19.085938 C -1.367188 24.535156 19.816406 35.585938 41.230469 39.269531 C 62.570312 42.953125 84.0625 39.421875 105.398438 39.039062 C 126.816406 38.65625 148 41.417969 169.414062 44.257812 C 190.753906 47.097656 212.242188 49.863281 233.582031 47.867188 C 254.996094 45.792969 276.179688 38.886719 297.59375 32.515625 C 318.933594 26.070312 340.425781 20.234375 361.761719 21.769531 C 383.179688 23.304688 404.363281 32.210938 425.777344 31.363281 C 447.117188 30.445312 468.605469 19.699219 489.945312 17.550781 C 511.359375 15.324219 532.542969 21.769531 553.960938 30.289062 C 575.296875 38.886719 596.789062 49.632812 618.125 50.398438 C 639.542969 51.167969 660.726562 41.957031 682.140625 35.433594 C 703.480469 28.910156 724.96875 25.070312 746.308594 25.992188 C 767.722656 26.835938 788.90625 32.515625 810.324219 36.738281 C 831.660156 40.957031 853.152344 43.722656 874.488281 42.109375 C 895.90625 40.421875 917.089844 34.28125 938.503906 31.75 C 959.84375 29.140625 981.332031 30.214844 1002.671875 31.363281 C 1024.085938 32.515625 1045.269531 33.742188 1066.6875 36.046875 C 1088.023438 38.347656 1109.515625 41.726562 1130.851562 42.1875 C 1152.269531 42.722656 1173.453125 40.421875 1194.867188 38.117188 C 1216.207031 35.816406 1237.695312 33.515625 1259.035156 30.214844 C 1280.449219 26.835938 1301.632812 22.539062 1323.050781 27.21875 C 1344.386719 31.980469 1365.878906 45.792969 1387.214844 44.414062 C 1408.632812 42.953125 1429.816406 26.375 1440.484375 18.011719 L 1451.078125 9.722656 L 1451.078125 106.425781 L 1440.484375 106.425781 C 1429.816406 106.425781 1408.632812 106.425781 1387.214844 106.425781 C 1365.878906 106.425781 1344.386719 106.425781 1323.050781 106.425781 C 1301.632812 106.425781 1280.449219 106.425781 1259.035156 106.425781 C 1237.695312 106.425781 1216.207031 106.425781 1194.867188 106.425781 C 1173.453125 106.425781 1152.269531 106.425781 1130.851562 106.425781 C 1109.515625 106.425781 1088.023438 106.425781 1066.6875 106.425781 C 1045.269531 106.425781 1024.085938 106.425781 1002.671875 106.425781 C 981.332031 106.425781 959.84375 106.425781 938.503906 106.425781 C 917.089844 106.425781 895.90625 106.425781 874.488281 106.425781 C 853.152344 106.425781 831.660156 106.425781 810.324219 106.425781 C 788.90625 106.425781 767.722656 106.425781 746.308594 106.425781 C 724.96875 106.425781 703.480469 106.425781 682.140625 106.425781 C 660.726562 106.425781 639.542969 106.425781 618.125 106.425781 C 596.789062 106.425781 575.296875 106.425781 553.960938 106.425781 C 532.542969 106.425781 511.359375 106.425781 489.945312 106.425781 C 468.605469 106.425781 447.117188 106.425781 425.777344 106.425781 C 404.363281 106.425781 383.179688 106.425781 361.761719 106.425781 C 340.425781 106.425781 318.933594 106.425781 297.59375 106.425781 C 276.179688 106.425781 254.996094 106.425781 233.582031 106.425781 C 212.242188 106.425781 190.753906 106.425781 169.414062 106.425781 C 148 106.425781 126.816406 106.425781 105.398438 106.425781 C 84.0625 106.425781 62.570312 106.425781 41.230469 106.425781 C 19.816406 106.425781 -1.367188 106.425781 -12.035156 106.425781 L -22.628906 106.425781 Z M -22.628906 13.558594 " fill-opacity="1" fill-rule="nonzero"/></g><g clip-path="url(#21d36372a5)"><path fill="#9c697e" d="M -22.628906 35.046875 L -12.035156 39.882812 C -1.367188 44.796875 19.816406 54.464844 41.230469 54.773438 C 62.570312 55.003906 84.0625 45.792969 105.398438 44.640625 C 126.816406 43.492188 148 50.398438 169.414062 49.785156 C 190.753906 49.09375 212.242188 40.957031 233.582031 35.664062 C 254.996094 30.445312 276.179688 28.140625 297.59375 34.433594 C 318.933594 40.652344 340.425781 55.542969 361.761719 59.457031 C 383.179688 63.445312 404.363281 56.539062 425.777344 53.238281 C 447.117188 49.863281 468.605469 50.167969 489.945312 51.011719 C 511.359375 51.933594 532.542969 53.46875 553.960938 55.925781 C 575.296875 58.304688 596.789062 61.679688 618.125 63.675781 C 639.542969 65.75 660.726562 66.515625 682.140625 60.605469 C 703.480469 54.773438 724.96875 42.1875 746.308594 37.964844 C 767.722656 33.742188 788.90625 37.886719 810.324219 39.5 C 831.660156 41.1875 853.152344 40.421875 874.488281 40.804688 C 895.90625 41.1875 917.089844 42.722656 938.503906 42.109375 C 959.84375 41.417969 981.332031 38.65625 1002.671875 37.503906 C 1024.085938 36.355469 1045.269531 36.8125 1066.6875 39.421875 C 1088.023438 41.957031 1109.515625 46.5625 1130.851562 46.023438 C 1152.269531 45.5625 1173.453125 39.882812 1194.867188 39.421875 C 1216.207031 38.886719 1237.695312 43.492188 1259.035156 44.027344 C 1280.449219 44.488281 1301.632812 40.957031 1323.050781 42.953125 C 1344.386719 45.027344 1365.878906 52.703125 1387.214844 54.007812 C 1408.632812 55.234375 1429.816406 50.167969 1440.484375 47.558594 L 1451.078125 45.027344 L 1451.078125 106.425781 L 1440.484375 106.425781 C 1429.816406 106.425781 1408.632812 106.425781 1387.214844 106.425781 C 1365.878906 106.425781 1344.386719 106.425781 1323.050781 106.425781 C 1301.632812 106.425781 1280.449219 106.425781 1259.035156 106.425781 C 1237.695312 106.425781 1216.207031 106.425781 1194.867188 106.425781 C 1173.453125 106.425781 1152.269531 106.425781 1130.851562 106.425781 C 1109.515625 106.425781 1088.023438 106.425781 1066.6875 106.425781 C 1045.269531 106.425781 1024.085938 106.425781 1002.671875 106.425781 C 981.332031 106.425781 959.84375 106.425781 938.503906 106.425781 C 917.089844 106.425781 895.90625 106.425781 874.488281 106.425781 C 853.152344 106.425781 831.660156 106.425781 810.324219 106.425781 C 788.90625 106.425781 767.722656 106.425781 746.308594 106.425781 C 724.96875 106.425781 703.480469 106.425781 682.140625 106.425781 C 660.726562 106.425781 639.542969 106.425781 618.125 106.425781 C 596.789062 106.425781 575.296875 106.425781 553.960938 106.425781 C 532.542969 106.425781 511.359375 106.425781 489.945312 106.425781 C 468.605469 106.425781 447.117188 106.425781 425.777344 106.425781 C 404.363281 106.425781 383.179688 106.425781 361.761719 106.425781 C 340.425781 106.425781 318.933594 106.425781 297.59375 106.425781 C 276.179688 106.425781 254.996094 106.425781 233.582031 106.425781 C 212.242188 106.425781 190.753906 106.425781 169.414062 106.425781 C 148 106.425781 126.816406 106.425781 105.398438 106.425781 C 84.0625 106.425781 62.570312 106.425781 41.230469 106.425781 C 19.816406 106.425781 -1.367188 106.425781 -12.035156 106.425781 L -22.628906 106.425781 Z M -22.628906 35.046875 " fill-opacity="1" fill-rule="nonzero"/></g><g clip-path="url(#28080eabd5)"><path fill="#a983a2" d="M -22.628906 46.5625 L -12.035156 48.863281 C -1.367188 51.167969 19.816406 55.769531 41.230469 56.15625 C 62.570312 56.539062 84.0625 52.703125 105.398438 50.78125 C 126.816406 48.863281 148 48.863281 169.414062 48.097656 C 190.753906 47.328125 212.242188 45.792969 233.582031 45.257812 C 254.996094 44.796875 276.179688 45.257812 297.59375 47.480469 C 318.933594 49.632812 340.425781 53.46875 361.761719 54.464844 C 383.179688 55.542969 404.363281 53.699219 425.777344 54.773438 C 447.117188 55.769531 468.605469 59.609375 489.945312 63.984375 C 511.359375 68.28125 532.542969 73.195312 553.960938 73.269531 C 575.296875 73.421875 596.789062 68.820312 618.125 64.367188 C 639.542969 59.839844 660.726562 55.542969 682.140625 51.933594 C 703.480469 48.328125 724.96875 45.5625 746.308594 44.257812 C 767.722656 42.953125 788.90625 43.261719 810.324219 43.109375 C 831.660156 42.953125 853.152344 42.492188 874.488281 46.175781 C 895.90625 49.863281 917.089844 57.84375 938.503906 59.070312 C 959.84375 60.375 981.332031 55.003906 1002.671875 54.007812 C 1024.085938 52.929688 1045.269531 56.308594 1066.6875 56.15625 C 1088.023438 56 1109.515625 52.472656 1130.851562 55.542969 C 1152.269531 58.609375 1173.453125 68.28125 1194.867188 67.898438 C 1216.207031 67.515625 1237.695312 57.074219 1259.035156 53.851562 C 1280.449219 50.628906 1301.632812 54.773438 1323.050781 57.84375 C 1344.386719 60.914062 1365.878906 62.910156 1387.214844 64.214844 C 1408.632812 65.519531 1429.816406 65.980469 1440.484375 66.285156 L 1451.078125 66.515625 L 1451.078125 106.425781 L 1440.484375 106.425781 C 1429.816406 106.425781 1408.632812 106.425781 1387.214844 106.425781 C 1365.878906 106.425781 1344.386719 106.425781 1323.050781 106.425781 C 1301.632812 106.425781 1280.449219 106.425781 1259.035156 106.425781 C 1237.695312 106.425781 1216.207031 106.425781 1194.867188 106.425781 C 1173.453125 106.425781 1152.269531 106.425781 1130.851562 106.425781 C 1109.515625 106.425781 1088.023438 106.425781 1066.6875 106.425781 C 1045.269531 106.425781 1024.085938 106.425781 1002.671875 106.425781 C 981.332031 106.425781 959.84375 106.425781 938.503906 106.425781 C 917.089844 106.425781 895.90625 106.425781 874.488281 106.425781 C 853.152344 106.425781 831.660156 106.425781 810.324219 106.425781 C 788.90625 106.425781 767.722656 106.425781 746.308594 106.425781 C 724.96875 106.425781 703.480469 106.425781 682.140625 106.425781 C 660.726562 106.425781 639.542969 106.425781 618.125 106.425781 C 596.789062 106.425781 575.296875 106.425781 553.960938 106.425781 C 532.542969 106.425781 511.359375 106.425781 489.945312 106.425781 C 468.605469 106.425781 447.117188 106.425781 425.777344 106.425781 C 404.363281 106.425781 383.179688 106.425781 361.761719 106.425781 C 340.425781 106.425781 318.933594 106.425781 297.59375 106.425781 C 276.179688 106.425781 254.996094 106.425781 233.582031 106.425781 C 212.242188 106.425781 190.753906 106.425781 169.414062 106.425781 C 148 106.425781 126.816406 106.425781 105.398438 106.425781 C 84.0625 106.425781 62.570312 106.425781 41.230469 106.425781 C 19.816406 106.425781 -1.367188 106.425781 -12.035156 106.425781 L -22.628906 106.425781 Z M -22.628906 46.5625 " fill-opacity="1" fill-rule="nonzero"/></g><g clip-path="url(#570e297cec)"><path fill="#b2a0c4" d="M -22.628906 81.867188 L -12.035156 78.183594 C -1.367188 74.421875 19.816406 67.054688 41.230469 64.828125 C 62.570312 62.679688 84.0625 65.75 105.398438 69.203125 C 126.816406 72.65625 148 76.492188 169.414062 77.492188 C 190.753906 78.566406 212.242188 76.722656 233.582031 76.261719 C 254.996094 75.726562 276.179688 76.492188 297.59375 77.109375 C 318.933594 77.796875 340.425781 78.257812 361.761719 77.875 C 383.179688 77.492188 404.363281 76.261719 425.777344 75.1875 C 447.117188 74.191406 468.605469 73.421875 489.945312 72.65625 C 511.359375 71.890625 532.542969 71.121094 553.960938 68.820312 C 575.296875 66.515625 596.789062 62.679688 618.125 60.761719 C 639.542969 58.839844 660.726562 58.839844 682.140625 62.832031 C 703.480469 66.746094 724.96875 74.730469 746.308594 77.414062 C 767.722656 80.101562 788.90625 77.492188 810.324219 77.03125 C 831.660156 76.492188 853.152344 78.027344 874.488281 77.03125 C 895.90625 75.957031 917.089844 72.425781 938.503906 69.433594 C 959.84375 66.515625 981.332031 64.214844 1002.671875 63.0625 C 1024.085938 61.910156 1045.269531 61.910156 1066.6875 62.296875 C 1088.023438 62.679688 1109.515625 63.445312 1130.851562 66.132812 C 1152.269531 68.820312 1173.453125 73.421875 1194.867188 73.578125 C 1216.207031 73.652344 1237.695312 69.355469 1259.035156 69.050781 C 1280.449219 68.820312 1301.632812 72.65625 1323.050781 72.65625 C 1344.386719 72.65625 1365.878906 68.820312 1387.214844 70.507812 C 1408.632812 72.117188 1429.816406 79.332031 1440.484375 82.863281 L 1451.078125 86.472656 L 1451.078125 106.425781 L 1440.484375 106.425781 C 1429.816406 106.425781 1408.632812 106.425781 1387.214844 106.425781 C 1365.878906 106.425781 1344.386719 106.425781 1323.050781 106.425781 C 1301.632812 106.425781 1280.449219 106.425781 1259.035156 106.425781 C 1237.695312 106.425781 1216.207031 106.425781 1194.867188 106.425781 C 1173.453125 106.425781 1152.269531 106.425781 1130.851562 106.425781 C 1109.515625 106.425781 1088.023438 106.425781 1066.6875 106.425781 C 1045.269531 106.425781 1024.085938 106.425781 1002.671875 106.425781 C 981.332031 106.425781 959.84375 106.425781 938.503906 106.425781 C 917.089844 106.425781 895.90625 106.425781 874.488281 106.425781 C 853.152344 106.425781 831.660156 106.425781 810.324219 106.425781 C 788.90625 106.425781 767.722656 106.425781 746.308594 106.425781 C 724.96875 106.425781 703.480469 106.425781 682.140625 106.425781 C 660.726562 106.425781 639.542969 106.425781 618.125 106.425781 C 596.789062 106.425781 575.296875 106.425781 553.960938 106.425781 C 532.542969 106.425781 511.359375 106.425781 489.945312 106.425781 C 468.605469 106.425781 447.117188 106.425781 425.777344 106.425781 C 404.363281 106.425781 383.179688 106.425781 361.761719 106.425781 C 340.425781 106.425781 318.933594 106.425781 297.59375 106.425781 C 276.179688 106.425781 254.996094 106.425781 233.582031 106.425781 C 212.242188 106.425781 190.753906 106.425781 169.414062 106.425781 C 148 106.425781 126.816406 106.425781 105.398438 106.425781 C 84.0625 106.425781 62.570312 106.425781 41.230469 106.425781 C 19.816406 106.425781 -1.367188 106.425781 -12.035156 106.425781 L -22.628906 106.425781 Z M -22.628906 81.867188 " fill-opacity="1" fill-rule="nonzero"/></g><g clip-path="url(#9dcc908a3b)"><path fill="#babde2" d="M -22.628906 94.914062 L -12.035156 93.609375 C -1.367188 92.382812 19.816406 89.773438 41.230469 86.855469 C 62.570312 83.9375 84.0625 80.5625 105.398438 81.484375 C 126.816406 82.402344 148 87.46875 169.414062 87.238281 C 190.753906 87.007812 212.242188 81.328125 233.582031 80.867188 C 254.996094 80.332031 276.179688 84.9375 297.59375 88.390625 C 318.933594 91.84375 340.425781 94.144531 361.761719 93.148438 C 383.179688 92.074219 404.363281 87.777344 425.777344 85.703125 C 447.117188 83.632812 468.605469 83.9375 489.945312 83.246094 C 511.359375 82.632812 532.542969 81.097656 553.960938 79.5625 C 575.296875 78.027344 596.789062 76.492188 618.125 79.027344 C 639.542969 81.636719 660.726562 88.238281 682.140625 91.304688 C 703.480469 94.375 724.96875 93.917969 746.308594 92.074219 C 767.722656 90.308594 788.90625 87.238281 810.324219 87.621094 C 831.660156 88.007812 853.152344 91.84375 874.488281 90.308594 C 895.90625 88.773438 917.089844 81.867188 938.503906 80.332031 C 959.84375 78.796875 981.332031 82.632812 1002.671875 85.089844 C 1024.085938 87.46875 1045.269531 88.542969 1066.6875 87.085938 C 1088.023438 85.703125 1109.515625 81.867188 1130.851562 82.402344 C 1152.269531 82.863281 1173.453125 87.777344 1194.867188 90.308594 C 1216.207031 92.839844 1237.695312 93.148438 1259.035156 91.996094 C 1280.449219 90.847656 1301.632812 88.238281 1323.050781 86.472656 C 1344.386719 84.707031 1365.878906 83.632812 1387.214844 85.089844 C 1408.632812 86.472656 1429.816406 90.308594 1440.484375 92.226562 L 1451.078125 94.144531 L 1451.078125 106.425781 L 1440.484375 106.425781 C 1429.816406 106.425781 1408.632812 106.425781 1387.214844 106.425781 C 1365.878906 106.425781 1344.386719 106.425781 1323.050781 106.425781 C 1301.632812 106.425781 1280.449219 106.425781 1259.035156 106.425781 C 1237.695312 106.425781 1216.207031 106.425781 1194.867188 106.425781 C 1173.453125 106.425781 1152.269531 106.425781 1130.851562 106.425781 C 1109.515625 106.425781 1088.023438 106.425781 1066.6875 106.425781 C 1045.269531 106.425781 1024.085938 106.425781 1002.671875 106.425781 C 981.332031 106.425781 959.84375 106.425781 938.503906 106.425781 C 917.089844 106.425781 895.90625 106.425781 874.488281 106.425781 C 853.152344 106.425781 831.660156 106.425781 810.324219 106.425781 C 788.90625 106.425781 767.722656 106.425781 746.308594 106.425781 C 724.96875 106.425781 703.480469 106.425781 682.140625 106.425781 C 660.726562 106.425781 639.542969 106.425781 618.125 106.425781 C 596.789062 106.425781 575.296875 106.425781 553.960938 106.425781 C 532.542969 106.425781 511.359375 106.425781 489.945312 106.425781 C 468.605469 106.425781 447.117188 106.425781 425.777344 106.425781 C 404.363281 106.425781 383.179688 106.425781 361.761719 106.425781 C 340.425781 106.425781 318.933594 106.425781 297.59375 106.425781 C 276.179688 106.425781 254.996094 106.425781 233.582031 106.425781 C 212.242188 106.425781 190.753906 106.425781 169.414062 106.425781 C 148 106.425781 126.816406 106.425781 105.398438 106.425781 C 84.0625 106.425781 62.570312 106.425781 41.230469 106.425781 C 19.816406 106.425781 -1.367188 106.425781 -12.035156 106.425781 L -22.628906 106.425781 Z M -22.628906 94.914062 " fill-opacity="1" fill-rule="nonzero"/></g></svg>